<svg width="68" height="33" viewBox="0 0 68 33" fill="none" xmlns="http://www.w3.org/2000/svg">
<rect width="68" height="33" fill="#161615"/>
<path d="M40.722 19.5477C43.8972 19.5477 46.4713 16.887 46.4713 13.6049C46.4713 10.3228 43.8972 7.66211 40.722 7.66211C37.5467 7.66211 34.9727 10.3228 34.9727 13.6049C34.9727 16.887 37.5467 19.5477 40.722 19.5477Z" fill="#DB0316"/>
<path d="M40.5214 17.0409C42.7822 17.0409 44.615 15.1464 44.615 12.8095C44.615 10.4726 42.7822 8.57812 40.5214 8.57812C38.2605 8.57812 36.4277 10.4726 36.4277 12.8095C36.4277 15.1464 38.2605 17.0409 40.5214 17.0409Z" fill="black"/>
<path d="M0 0C0 0 39.1405 1.305 59.0715 9.97452L68 23.212L39.5921 33L23.9894 11.1865L41.1252 25.8222L51.7665 19.9486C51.7665 19.9486 37.6975 10.4408 0 0Z" fill="white"/>
</svg>
