<svg id="icon-medical" xmlns="http://www.w3.org/2000/svg" width="14" height="14" viewBox="0 0 14 14">
  <rect id="Rectangle_551" data-name="Rectangle 551" width="14" height="14" rx="4" fill="#fff"/>
  <path id="Path_777" data-name="Path 777" d="M2.6-4.728,3.888-.756c.192.624.492.876,1.02.876a.953.953,0,0,0,.7-.252c.156-.144.216-.276.384-.84L7.116-4.728,7.728-.96a1.412,1.412,0,0,0,.252.744A.9.9,0,0,0,8.7.12.9.9,0,0,0,9.612-.8a1.754,1.754,0,0,0-.06-.468L8.532-7.164a1.208,1.208,0,0,0-1.212-.96,1.266,1.266,0,0,0-1.212.96L4.872-3.216,3.528-7.344a1.152,1.152,0,0,0-1.14-.78A1.145,1.145,0,0,0,1.152-7.08L.2-1.248a2.23,2.23,0,0,0-.048.432.893.893,0,0,0,.9.936.9.9,0,0,0,.72-.336,1.474,1.474,0,0,0,.24-.744Z" transform="translate(2 11)" fill="#2e2e2e"/>
</svg>
