<svg xmlns="http://www.w3.org/2000/svg" width="12.69" height="15.789" viewBox="0 0 12.69 15.789">
  <g id="description-24px" transform="translate(-291.089 -308.744)">
    <g id="Group_3051" data-name="Group 3051">
      <path id="Path_1155" data-name="Path 1155" d="M294.339,319.736h6.2v1.549h-6.2Zm0-3.1h6.2v1.549h-6.2Zm4.645-7.742h-6.2a1.553,1.553,0,0,0-1.545,1.549v12.391a1.549,1.549,0,0,0,1.541,1.549h9.3a1.553,1.553,0,0,0,1.549-1.549v-9.293Zm3.1,13.94h-9.3V310.443h5.421v3.872h3.872Z" fill="#0B0B0B"/>
      <path id="Path_1885" data-name="Path 1885" d="M302.08,324.533h-9.3a1.7,1.7,0,0,1-1.691-1.7V310.442a1.708,1.708,0,0,1,1.694-1.7h6.264l4.732,4.735v9.354A1.708,1.708,0,0,1,302.08,324.533Zm-9.3-15.49a1.408,1.408,0,0,0-1.395,1.4v12.39a1.4,1.4,0,0,0,1.392,1.4h9.3a1.406,1.406,0,0,0,1.4-1.4V313.6l-4.557-4.56Zm9.45,13.94h-9.6V310.292h5.72v3.873h3.872Zm-9.3-.3h9l0-8.22H298.06v-3.872h-5.122Zm7.751-1.249h-6.5v-1.849h6.5Zm-6.2-.3h5.9v-1.249h-5.9Zm6.2-2.8h-6.5v-1.848h6.5Zm-6.2-.3h5.9v-1.249h-5.9Z" fill="#ffffff"/>
    </g>
  </g>
</svg>
