<svg xmlns="http://www.w3.org/2000/svg" width="15.909" height="15.909" viewBox="0 0 15.909 15.909">
  <g id="Icon_feather-info" data-name="Icon feather-info" transform="translate(-289.492 -223.695)">
    <path id="Path_1880" data-name="Path 1880" d="M297.446,239.6a7.954,7.954,0,1,1,7.955-7.955A7.963,7.963,0,0,1,297.446,239.6Zm0-14.609a6.655,6.655,0,1,0,6.655,6.654A6.662,6.662,0,0,0,297.446,224.995Z" fill="#fff"/>
    <path id="Path_1881" data-name="Path 1881" d="M297.446,235.222a.65.65,0,0,1-.65-.65v-2.923a.65.65,0,0,1,1.3,0v2.923A.65.65,0,0,1,297.446,235.222Z" fill="#fff"/>
    <path id="Path_1882" data-name="Path 1882" d="M297.45,229.38a.7.7,0,0,1-.25-.05.771.771,0,0,1-.21-.14.6.6,0,0,1-.14-.21.559.559,0,0,1-.05-.25.534.534,0,0,1,.05-.25.643.643,0,0,1,.35-.35.667.667,0,0,1,.71.14.66.66,0,0,1,.19.46.742.742,0,0,1-.05.25.77.77,0,0,1-.14.21.826.826,0,0,1-.22.14A.644.644,0,0,1,297.45,229.38Z" fill="#fff"/>
  </g>
</svg>
