<svg xmlns="http://www.w3.org/2000/svg" width="13.612" height="15.167" viewBox="0 0 13.612 15.167">
  <g id="Icon_feather-user" data-name="Icon feather-user" transform="translate(-291.003 -266.761)">
    <path id="Path_1883" data-name="Path 1883" d="M304.031,281.928a.584.584,0,0,1-.584-.583v-1.556a2.531,2.531,0,0,0-2.527-2.528H294.7a2.531,2.531,0,0,0-2.527,2.528v1.556a.584.584,0,0,1-1.167,0v-1.556a3.7,3.7,0,0,1,3.694-3.7h6.223a3.7,3.7,0,0,1,3.695,3.7v1.556A.583.583,0,0,1,304.031,281.928Z" fill="#0B0B0B"/>
    <path id="Path_1884" data-name="Path 1884" d="M297.753,274.15a3.695,3.695,0,1,1,3.7-3.694A3.7,3.7,0,0,1,297.753,274.15Zm0-6.222a2.527,2.527,0,1,0,2.527,2.528A2.531,2.531,0,0,0,297.753,267.928Z" fill="#0B0B0B"/>
  </g>
</svg>
