<svg xmlns="http://www.w3.org/2000/svg" width="14.559" height="14.575" viewBox="0 0 14.559 14.575">
  <path id="Path_1896" data-name="Path 1896" d="M302.5,617.77c-.065,0-.128,0-.188-.01a13.272,13.272,0,0,1-5.765-2.04,13.1,13.1,0,0,1-4.005-4.006,13.273,13.273,0,0,1-2.047-5.779,1.918,1.918,0,0,1,1.733-2.1,1.679,1.679,0,0,1,.177-.009h1.924a1.922,1.922,0,0,1,1.893,1.65,7.531,7.531,0,0,0,.41,1.648,1.922,1.922,0,0,1-.433,2.024l-.449.449a9.5,9.5,0,0,0,2.89,2.888l.447-.446a1.924,1.924,0,0,1,2.027-.435,7.483,7.483,0,0,0,1.638.408,1.923,1.923,0,0,1,1.659,1.936v1.894A1.922,1.922,0,0,1,302.5,617.77Zm-8.179-12.64h-1.916a.643.643,0,0,0-.476.224.611.611,0,0,0-.141.451,11.966,11.966,0,0,0,1.848,5.207,11.8,11.8,0,0,0,3.612,3.613,11.951,11.951,0,0,0,5.2,1.842h0a.627.627,0,0,0,.663-.619v-1.917a.621.621,0,0,0-.535-.628,8.8,8.8,0,0,1-1.919-.478.615.615,0,0,0-.653.139l-.806.8a.652.652,0,0,1-.78.1,10.8,10.8,0,0,1-4.051-4.052.648.648,0,0,1,.105-.78l.8-.807a.618.618,0,0,0,.138-.651,8.825,8.825,0,0,1-.481-1.928A.619.619,0,0,0,294.325,605.13Zm7.534,4.411a.65.65,0,0,1-.636-.526,2.517,2.517,0,0,0-1.994-1.994.65.65,0,1,1,.249-1.275,3.8,3.8,0,0,1,3.02,3.021.648.648,0,0,1-.514.761A.6.6,0,0,1,301.859,609.541Zm2.539-.007a.65.65,0,0,1-.644-.578,5.036,5.036,0,0,0-4.472-4.465.65.65,0,0,1,.143-1.293,6.327,6.327,0,0,1,5.62,5.614.649.649,0,0,1-.573.717A.615.615,0,0,1,304.4,609.534Z" transform="translate(-290.49 -603.195)" fill="#fff"/>
</svg>
