<svg xmlns="http://www.w3.org/2000/svg" width="17.538" height="17.539" viewBox="0 0 17.538 17.539">
  <g id="Icon_feather-settings" data-name="Icon feather-settings" transform="translate(-289.101 -476.14)">
    <path id="Path_1890" data-name="Path 1890" d="M297.871,487.774a2.864,2.864,0,1,1,2.863-2.865A2.868,2.868,0,0,1,297.871,487.774Zm0-4.428a1.564,1.564,0,1,0,1.563,1.563A1.566,1.566,0,0,0,297.871,483.346Z" fill="#fff"/>
    <path id="Path_1891" data-name="Path 1891" d="M297.931,493.679a2.128,2.128,0,0,1-2.127-2.126.59.59,0,0,0-.373-.57.579.579,0,0,0-.666.1,2.144,2.144,0,0,1-1.513.691,2.2,2.2,0,0,1-1.521-.583,2.129,2.129,0,0,1-.082-3.006l.082-.083a.6.6,0,0,0,.187-.436.575.575,0,0,0-.572-.568h-.121a2.126,2.126,0,0,1,0-4.253.628.628,0,0,0,.473-1.037,2.127,2.127,0,1,1,2.927-3.088l.08.082a.566.566,0,0,0,.627.114.718.718,0,0,1,.143-.045.566.566,0,0,0,.269-.48v-.121a2.125,2.125,0,0,1,2.125-2.127A2.131,2.131,0,0,1,300,478.265a.593.593,0,0,0,.577.632.728.728,0,0,0,.4-.162,2.128,2.128,0,1,1,3.044,2.974.579.579,0,0,0-.154.662.613.613,0,0,1,.044.142.566.566,0,0,0,.479.265h.122a2.126,2.126,0,0,1,0,4.253.6.6,0,0,0-.572.314c0,.013-.01.027-.016.041a.567.567,0,0,0,.114.627,2.142,2.142,0,0,1,.039,3.047,2.182,2.182,0,0,1-3.009,0,.668.668,0,0,0-.447-.2.579.579,0,0,0-.567.573v.119A2.131,2.131,0,0,1,297.931,493.679Zm-2.757-4.06a1.964,1.964,0,0,1,1.93,1.85.848.848,0,0,0,.826.909.827.827,0,0,0,.825-.826v-.125a1.879,1.879,0,0,1,1.845-1.866,1.953,1.953,0,0,1,1.337.527.829.829,0,1,0,1.222-1.117,1.891,1.891,0,0,1-.446-2.053c.006-.02.013-.038.02-.057a1.87,1.87,0,0,1,1.709-1.131.845.845,0,0,0,.9-.826.827.827,0,0,0-.826-.825h-.125a1.868,1.868,0,0,1-1.712-1.133.63.63,0,0,1-.048-.176,1.858,1.858,0,0,1,.426-1.934.844.844,0,0,0,.048-1.217.828.828,0,0,0-1.169,0,1.92,1.92,0,0,1-1.339.579h-.019a1.88,1.88,0,0,1-1.877-1.858.848.848,0,0,0-.827-.9.826.826,0,0,0-.826.827v.124a1.866,1.866,0,0,1-1.139,1.715.628.628,0,0,1-.176.047,1.864,1.864,0,0,1-1.932-.424l.377-.545-.452.466a.827.827,0,0,0-1.151,1.189,1.885,1.885,0,0,1,.431,2.116,1.837,1.837,0,0,1-1.693,1.187.85.85,0,0,0-.908.827.825.825,0,0,0,.825.825h.126a1.878,1.878,0,0,1,1.338,3.185l-.568-.351.472.446a.829.829,0,0,0,.031,1.17.886.886,0,0,0,.591.227.818.818,0,0,0,.578-.259A1.968,1.968,0,0,1,295.174,489.619Zm8.157-2.495h0Z" fill="#fff"/>
  </g>
</svg>
