<svg xmlns="http://www.w3.org/2000/svg" width="21.249" height="21.249" viewBox="0 0 21.249 21.249">
  <g id="memory-24px" transform="translate(-287.18 -431.345)">
    <path id="Path_1165" data-name="Path 1165" d="M287.18,431.345h21.249v21.249H287.18Z" fill="none"/>
    <g id="Group_3052" data-name="Group 3052">
      <path id="Path_1166" data-name="Path 1166" d="M300.46,439.313h-5.312v5.312h5.312Zm-1.771,3.541h-1.77v-1.77h1.771Zm7.083-1.771v-1.77H304v-1.771a1.775,1.775,0,0,0-1.766-1.77H300.46V434h-1.77v1.771h-1.771V434h-1.771v1.771h-1.771a1.776,1.776,0,0,0-1.77,1.77v1.771h-1.771v1.771h1.771v1.771h-1.771v1.771h1.771V446.4a1.776,1.776,0,0,0,1.771,1.771h1.77v1.771h1.771v-1.776h1.771v1.771h1.771v-1.771h1.775A1.776,1.776,0,0,0,304,446.4v-1.776h1.771v-1.77H304v-1.771Zm-3.536,5.318h-8.859v-8.859h8.859Z" fill="#fff"/>
      <path id="Path_1889" data-name="Path 1889" d="M297.044,450.067h-2.021V448.3h-1.645a1.907,1.907,0,0,1-1.9-1.9v-1.649h-1.771v-2.022h1.771v-1.52h-1.771v-2.021h1.771v-1.646a1.907,1.907,0,0,1,1.9-1.9h1.646v-1.77h2.021v1.77h1.521v-1.77h2.02v1.77h1.651a1.907,1.907,0,0,1,1.891,1.9v1.646h1.77v2.02h-1.77v1.52H305.9v2.021h-1.771v1.65a1.907,1.907,0,0,1-1.89,1.892h-1.651v1.771h-2.021v-1.771h-1.521Zm-1.771-.25h1.521v-1.775h2.021v1.771h1.521v-1.771h1.9a1.657,1.657,0,0,0,1.641-1.643v-1.9h1.771v-1.521h-1.771v-2.02h1.77v-1.52h-1.77v-1.9a1.658,1.658,0,0,0-1.642-1.646h-1.9v-1.77h-1.52v1.77h-2.021v-1.77h-1.521v1.77h-1.9a1.656,1.656,0,0,0-1.645,1.646v1.9h-1.771v1.521h1.771v2.02h-1.771V444.5h1.771v1.9a1.656,1.656,0,0,0,1.647,1.647h1.894Zm7.088-3.292h-9.109v-9.108h9.109Zm-8.859-.25h8.609v-8.608H293.5Zm7.083-1.525h-5.562v-5.562h5.562Zm-5.312-.25h5.062v-5.062h-5.062Zm3.541-1.521h-2.02v-2.02h2.021Zm-1.77-.25h1.52v-1.52h-1.521Z" fill="#33363d"/>
    </g>
  </g>
</svg>
