<svg xmlns="http://www.w3.org/2000/svg" width="17.688" height="17.688" viewBox="0 0 17.688 17.688">
  <g id="account_balance_wallet-24px" data-name="account balance wallet-24px" transform="translate(-288.761 -517.345)">
    <path id="Path_1169" data-name="Path 1169" d="M288.761,517.345h17.688v17.688H288.761Z" fill="none"/>
    <path id="Path_1170" data-name="Path 1170" d="M304.238,522.71v-1.68a1.477,1.477,0,0,0-1.474-1.474H292.446a1.474,1.474,0,0,0-1.474,1.474h0v10.318a1.474,1.474,0,0,0,1.474,1.474h10.318a1.478,1.478,0,0,0,1.474-1.474v-1.68a1.473,1.473,0,0,0,.734-1.268v-4.422A1.471,1.471,0,0,0,304.238,522.71Zm-.737,1.268V528.4h-5.159v-4.422Zm-11.055,7.37V521.03h10.318V522.5h-4.422a1.478,1.478,0,0,0-1.47,1.474V528.4a1.479,1.479,0,0,0,1.474,1.474h4.422v1.474Z" fill="#fff"/>
    <circle id="Ellipse_140" data-name="Ellipse 140" cx="1.105" cy="1.105" r="1.105" transform="translate(299.447 525.083)" fill="#fff"/>
  </g>
</svg>
