<svg xmlns="http://www.w3.org/2000/svg" width="14.722" height="16.222" viewBox="0 0 14.722 16.222">
  <g id="Icon_feather-trash-2" data-name="Icon feather-trash-2" transform="translate(-290.542 -559.745)">
    <path id="Path_1892" data-name="Path 1892" d="M304.664,563.949H291.142a.6.6,0,1,1,0-1.2h13.522a.6.6,0,1,1,0,1.2Z" fill="#0B0B0B"/>
    <path id="Path_1893" data-name="Path 1893" d="M301.662,575.967h-7.517a2.1,2.1,0,0,1-2.1-2.1V563.35a.6.6,0,0,1,1.2,0v10.517a.9.9,0,0,0,.9.9h7.517a.9.9,0,0,0,.9-.9V563.35a.6.6,0,0,1,1.2,0v10.517A2.1,2.1,0,0,1,301.662,575.967ZM294.9,563.949a.6.6,0,0,1-.6-.6v-1.505a2.1,2.1,0,0,1,2.1-2.1H299.4a2.1,2.1,0,0,1,2.1,2.1v1.5a.6.6,0,0,1-1.2,0v-1.5a.9.9,0,0,0-.9-.9H296.4a.9.9,0,0,0-.9.9v1.505A.6.6,0,0,1,294.9,563.949Z" fill="#0B0B0B"/>
    <path id="Path_1894" data-name="Path 1894" d="M296.4,572.213a.6.6,0,0,1-.6-.6V567.1a.6.6,0,0,1,1.2,0v4.508A.6.6,0,0,1,296.4,572.213Z" fill="#0B0B0B"/>
    <path id="Path_1895" data-name="Path 1895" d="M299.4,572.213a.6.6,0,0,1-.6-.6V567.1a.6.6,0,0,1,1.2,0v4.508A.6.6,0,0,1,299.4,572.213Z" fill="#0B0B0B"/>
  </g>
</svg>
