<svg xmlns="http://www.w3.org/2000/svg" width="13.747" height="15.187" viewBox="0 0 13.747 15.187">
  <g id="Icon_feather-codesandbox" data-name="Icon feather-codesandbox" transform="translate(-290.981 -350.69)">
    <path id="Path_1886" data-name="Path 1886" d="M297.855,365.823a2.037,2.037,0,0,1-1.018-.271L292,362.787a2.04,2.04,0,0,1-1.019-1.766v-5.529A2.04,2.04,0,0,1,292,353.733l4.844-2.772a2.035,2.035,0,0,1,2.031,0l4.837,2.765a2.042,2.042,0,0,1,1.019,1.766v5.53a2.039,2.039,0,0,1-1.017,1.763l-4.843,2.767A2.026,2.026,0,0,1,297.855,365.823Zm0-13.832a.731.731,0,0,0-.365.1l-4.844,2.771a.738.738,0,0,0-.364.633v5.53a.738.738,0,0,0,.366.638l4.838,2.764a.732.732,0,0,0,.735,0l4.843-2.768a.73.73,0,0,0,.364-.633v-5.533a.737.737,0,0,0-.365-.638l-4.838-2.764A.734.734,0,0,0,297.854,351.991Z" fill="#0B0B0B"/>
    <path id="Path_1887" data-name="Path 1887" d="M297.85,358.915a.644.644,0,0,1-.326-.088l-6.036-3.492a.65.65,0,1,1,.651-1.125l5.711,3.3,5.711-3.3a.65.65,0,0,1,.65,1.125l-6.036,3.492A.643.643,0,0,1,297.85,358.915Z" fill="#0B0B0B"/>
    <path id="Path_1888" data-name="Path 1888" d="M297.854,365.877a.65.65,0,0,1-.649-.649v-6.97a.65.65,0,1,1,1.3,0v6.97A.65.65,0,0,1,297.854,365.877Z" fill="#0B0B0B"/>
  </g>
</svg>
