<svg xmlns="http://www.w3.org/2000/svg" width="68" height="32.594" viewBox="0 0 68 32.594">
  <g id="pulse_logo" transform="translate(-34.118 800.743)">
    <path id="Path_1183" data-name="Path 1183" d="M673.7-800.729a3.914,3.914,0,0,0-1.511.616,3.514,3.514,0,0,0-1.439,2.212c-.144.611-1.49,8.1-1.953,10.855a7.433,7.433,0,0,1-.764,2.624,3.7,3.7,0,0,1-1.91,1.724,3.346,3.346,0,0,1-1.346.272,2.054,2.054,0,0,1-.849-.064,1.79,1.79,0,0,1-1.142-1.07c-.161-.429-.11-.811.964-6.771.318-1.775.323-2.059.017-2.2a3.787,3.787,0,0,0-1.3-.025.71.71,0,0,0-.476.437c-.034.1-.267,1.333-.514,2.747s-.526,2.989-.616,3.5a9.843,9.843,0,0,0-.272,2.335,3.093,3.093,0,0,0,.072.976,2.671,2.671,0,0,0,1.919,1.842,6.118,6.118,0,0,0,2.742.034,5.172,5.172,0,0,0,1.957-.951c.433-.352.535-.412.607-.352.055.047.064.119.042.4-.047.616.144.8.836.794.667,0,.968-.149,1.091-.522.038-.119.811-4.445,2.445-13.725.526-2.98.509-2.912.807-3.243a.887.887,0,0,1,.811-.289c.374.03.488.115.569.429a1.134,1.134,0,0,1-.008.633c-.038.216-.425,2.369-.858,4.784s-.968,5.426-1.193,6.686-.5,2.8-.616,3.418a8.909,8.909,0,0,0-.318,3.333,2.176,2.176,0,0,0,2.373,1.55,3.359,3.359,0,0,0,3.057-1.741,8.958,8.958,0,0,0,.79-2.912,7.749,7.749,0,0,1,.374-1.694.9.9,0,0,1,.539-.467c.518-.149.976.2,1.142.858a4.205,4.205,0,0,0,2.106,2.594,5.186,5.186,0,0,0,3.163.518,6.647,6.647,0,0,0,2.467-.679,3.788,3.788,0,0,0,2.288-2.908,2.381,2.381,0,0,0-.688-2.437c-.5-.458-1.159-.722-3.082-1.214a9.162,9.162,0,0,1-2.14-.683,1.152,1.152,0,0,1-.633-.688,1.027,1.027,0,0,1,.331-1.091,2.806,2.806,0,0,1,1.991-.688c1.4-.055,2.178.352,2.458,1.282.174.573.267.628,1.1.62.62,0,.726-.038.913-.259.14-.166.174-.352.144-.781a2.712,2.712,0,0,0-1.134-2.1,6.393,6.393,0,0,0-3.541-.688c-2.11.182-3.617,1.057-4.3,2.488a3.083,3.083,0,0,0-.314,1.452,2,2,0,0,0,.59,1.613,4.821,4.821,0,0,0,2.466,1.176l1.167.263a7.2,7.2,0,0,1,1.741.594,1.571,1.571,0,0,1,.637.675,1.517,1.517,0,0,1-.484,1.477,1.823,1.823,0,0,1-.883.5,4.582,4.582,0,0,1-1.707.238,3.287,3.287,0,0,1-1.923-.56,2.476,2.476,0,0,1-.777-1.235,6.177,6.177,0,0,0-.836-1.533,2.409,2.409,0,0,0-3.176-.662,3.763,3.763,0,0,0-1.826,2.564c-.051.2-.174.853-.276,1.469-.25,1.486-.369,1.91-.616,2.195a.974.974,0,0,1-1.291.11c-.191-.233-.187-.391.072-1.8.391-2.1,2.781-15.521,2.827-15.878.216-1.6-.28-2.509-1.575-2.874A4.624,4.624,0,0,0,673.7-800.729Z" transform="translate(-599.869)" fill="#fff"/>
    <path id="Path_1184" data-name="Path 1184" d="M54.783-616.512a5.173,5.173,0,0,0-2.692.972,1.4,1.4,0,0,1-.365.216c-.089,0-.166-.208-.166-.454a.35.35,0,0,0-.1-.289,1.777,1.777,0,0,0-1.257-.191.729.729,0,0,0-.7.607c-.081.3-.293,1.494-1.384,7.693-1.375,7.837-2.382,13.258-2.492,13.445a.873.873,0,0,1-.229.238.458.458,0,0,1-.382.081.928.928,0,0,1-.845-.594c-.183-.412-.174-.518.361-3.935.841-5.417,1.023-6.729.985-7.221a1.885,1.885,0,0,0-1.414-1.579c-.692-.246-1.21-.3-3.88-.391-1.015-.034-2.2-.085-2.632-.106a22.221,22.221,0,0,0-2.836,0c-.267.055-.4.191-.539.56-.2.535-.1.934.276,1.121.183.089.34.1,4.033.263a37.149,37.149,0,0,1,4.678.263.635.635,0,0,1,.246.59c0,.28-.993,6.419-1.316,8.109a6.663,6.663,0,0,0-.174,2.14,3.4,3.4,0,0,0,1.978,2.764,3.264,3.264,0,0,0,2.174.382,2.42,2.42,0,0,0,1.282-1.163,7.746,7.746,0,0,0,.6-2.318c.14-.794.45-2.5.683-3.8s.539-3.031.675-3.859c.31-1.842.48-2.513.633-2.513a4.257,4.257,0,0,1,.433.318,3.008,3.008,0,0,0,1.193.679,5.172,5.172,0,0,0,1.8.28,5.783,5.783,0,0,0,4.165-1.7,8.287,8.287,0,0,0,2.309-5.939,4.826,4.826,0,0,0-.785-2.921,3.794,3.794,0,0,0-2.5-1.677A7.476,7.476,0,0,0,54.783-616.512Zm.9,1.974a2.645,2.645,0,0,1,1.809,1.855,5.33,5.33,0,0,1-.221,3.3,4.506,4.506,0,0,1-2.365,3,3.211,3.211,0,0,1-1.516.284,2.907,2.907,0,0,1-1.571-.357,2.3,2.3,0,0,1-1.163-1.5,6.748,6.748,0,0,1-.132-1.7,6.064,6.064,0,0,1,1.019-3.1,3.678,3.678,0,0,1,3.524-1.864A3.151,3.151,0,0,1,55.679-614.538Z" transform="translate(0 -176.388)" fill="#fff"/>
    <path id="Path_1185" data-name="Path 1185" d="M1382.2-611.774a6.137,6.137,0,0,0-3.018,1.235,7.423,7.423,0,0,0-3.023,6.028,5.884,5.884,0,0,0,.187,1.94,3.74,3.74,0,0,0,1.944,2.517,6.663,6.663,0,0,0,1.337.442,9.035,9.035,0,0,0,2.441,0,5.577,5.577,0,0,0,3.035-1.6,4.225,4.225,0,0,0,1.231-1.94c0-.344-.187-.437-.87-.437a1.163,1.163,0,0,0-1.278.688,3.248,3.248,0,0,1-1.8,1.384,3.8,3.8,0,0,1-3.074-.318,2.521,2.521,0,0,1-1.078-2.284c.021-.518.089-.671.344-.79.17-.076.34-.081,4.016-.081,2.844,0,3.88-.013,4.008-.051a.762.762,0,0,0,.48-.488,3.991,3.991,0,0,0,.093-1.117,6.761,6.761,0,0,0-.187-2.084,3.84,3.84,0,0,0-3.621-3.052A4.674,4.674,0,0,0,1382.2-611.774Zm1.15,1.966a2.442,2.442,0,0,1,1.46,1.223c.28.556.4,1.333.229,1.52-.2.225-.106.216-3.176.216-2.751,0-2.853,0-2.959-.081-.085-.068-.106-.115-.1-.263a3.574,3.574,0,0,1,.964-1.6,3.8,3.8,0,0,1,2.093-1.117A3.837,3.837,0,0,1,1383.351-609.809Z" transform="translate(-1285.062 -180.91)" fill="#fff"/>
  </g>
</svg>
