<svg width="119" height="93" viewBox="0 0 119 93" fill="none" xmlns="http://www.w3.org/2000/svg">
<path d="M68.0661 64.5264H11V92.5264H68.0661V64.5264Z" fill="#040506"/>
<path d="M15.4321 70.5455H18.6334V84.1076H15.4321V70.5455ZM17.0442 81.6454H21.122C22.1734 81.6454 22.9874 81.4433 23.564 81.0392C23.8581 80.8219 24.0882 80.5552 24.2377 80.2584C24.3871 79.9615 24.4523 79.642 24.4285 79.3226V75.3308C24.4523 75.0114 24.3871 74.6919 24.2377 74.3951C24.0882 74.0983 23.8581 73.8316 23.564 73.6144C22.9874 73.2101 22.1734 73.008 21.122 73.008H17.0442V70.546H21.0533C22.3005 70.5184 23.5398 70.7128 24.6813 71.115C25.6412 71.4645 26.4399 72.0451 26.9654 72.7754C27.5118 73.5819 27.7819 74.4892 27.7485 75.4057V79.2484C27.7747 80.1378 27.5151 81.0177 26.9946 81.8043C26.4779 82.5427 25.6883 83.1356 24.7336 83.5022C23.5792 83.9319 22.3147 84.1394 21.0416 84.1081H17.0442V81.6454Z" fill="white"/>
<path d="M31.2813 83.5068C30.6388 83.0127 30.3176 82.2618 30.3176 81.2542C30.3176 80.2967 30.6778 79.5784 31.3983 79.0995C32.1187 78.6204 33.1995 78.3811 34.6405 78.3814H37.6798L37.8434 80.3307H34.6535C34.2696 80.3083 33.8874 80.3888 33.5671 80.5592C33.4423 80.6442 33.3445 80.7515 33.2815 80.8724C33.2185 80.9934 33.1922 81.1244 33.2047 81.255C33.1941 81.3942 33.2307 81.5332 33.3109 81.6571C33.3911 81.7811 33.5118 81.8854 33.6603 81.959C34.0853 82.1337 34.562 82.2128 35.039 82.1878C35.6892 82.2157 36.3397 82.1362 36.9497 81.9542C37.1353 81.8995 37.2951 81.8001 37.4071 81.6698C37.5191 81.5396 37.5776 81.3848 37.5749 81.2269L37.8202 82.6353C37.7742 82.9825 37.5579 83.3011 37.2186 83.5212C36.8294 83.7781 36.375 83.9643 35.8867 84.0672C35.3371 84.1902 34.7687 84.2515 34.198 84.2492C32.896 84.2486 31.9238 84.0012 31.2813 83.5068ZM37.5732 77.9709C37.5872 77.7754 37.5438 77.5799 37.4464 77.4001C37.3491 77.2203 37.2005 77.0612 37.0124 76.9353C36.5511 76.6714 35.9898 76.543 35.4235 76.5716C34.9665 76.5724 34.5126 76.6324 34.0796 76.7491C33.6541 76.8593 33.2551 77.0265 32.8997 77.2434L30.9132 75.6859C31.4368 75.2222 32.0948 74.8682 32.8296 74.6548C33.6736 74.4023 34.569 74.2774 35.4701 74.2866C36.4019 74.2661 37.3278 74.4109 38.181 74.7107C38.8965 74.9707 39.4942 75.4006 39.8926 75.9418C40.3036 76.5363 40.5073 77.2079 40.4825 77.8866V84.1079H37.5732V77.9709Z" fill="white"/>
<path d="M43.6372 74.427H47.0724V84.1085H43.6372V74.427ZM49.8882 76.8428C49.6356 76.7773 49.3711 76.7457 49.1055 76.7495C48.8243 76.7366 48.543 76.7748 48.2829 76.8612C48.0228 76.9477 47.7908 77.0801 47.6041 77.2485C47.2237 77.6441 47.0349 78.1359 47.0724 78.6336L46.8271 76.115C47.1138 75.5861 47.5615 75.1228 48.1297 74.7674C48.6325 74.4554 49.2514 74.2863 49.8882 74.287C50.3573 74.2813 50.8235 74.3462 51.2626 74.4781C51.6657 74.6026 52.0303 74.795 52.3319 75.0422L50.4624 77.1223C50.3005 76.995 50.104 76.8994 49.8882 76.8428Z" fill="white"/>
<path d="M53.8494 70.5459H57.051V84.108H53.8494V70.5459ZM55.3452 80.6198L61.0002 74.4264H64.3888L55.7773 83.4366L55.3452 80.6198ZM58.2196 79.1086L60.8601 77.84L64.9832 84.108H61.2808L58.2196 79.1086Z" fill="white"/>
<path d="M71.8818 70.6899H75.0831V84.2507H71.8818V70.6899ZM73.0386 70.6899H83.2626V73.1519H73.0386V70.6899ZM73.0386 76.2863H81.9767V78.7483H73.0386V76.2863ZM73.0386 81.7896H83.2626V84.2515H73.0386V81.7896Z" fill="#040506"/>
<path d="M84.6642 74.5703H87.6783L91.7563 82.984L89.7346 85.0445L84.6642 74.5703ZM95.8692 74.5703L90.472 86.519C90.3101 86.905 90.0542 87.2616 89.7188 87.5682C89.4161 87.8277 89.0332 88.019 88.6086 88.123C88.0792 88.2448 87.5296 88.3015 86.9788 88.2911H86.2661V85.8098H86.9788C87.2813 85.8186 87.5802 85.7554 87.8376 85.6284C88.0891 85.483 88.2722 85.2743 88.3575 85.0359L92.8558 74.5703H95.8692Z" fill="#040506"/>
<path d="M99.4733 83.8831C98.6625 83.5588 97.9983 83.0402 97.575 82.4C97.1167 81.6734 96.8917 80.8672 96.9208 80.054V78.963C96.8908 78.1178 97.105 77.2785 97.545 76.5096C97.9358 75.8542 98.5733 75.3128 99.3683 74.9612C100.259 74.5892 101.255 74.4062 102.26 74.4298C103.228 74.4082 104.181 74.6301 104.982 75.064C105.776 75.526 106.376 76.1679 106.707 76.9061C107.127 77.8404 107.327 78.8286 107.296 79.8209V80.4551H99V78.7293H104.375L104.342 78.5056C104.299 78.0285 104.067 77.5745 103.681 77.2093C103.499 77.0564 103.278 76.9365 103.033 76.8575C102.788 76.7786 102.526 76.7427 102.262 76.752C101.931 76.7361 101.599 76.777 101.29 76.872C100.981 76.967 100.7 77.1138 100.468 77.3025C100.014 77.7375 99.7858 78.295 99.8308 78.8602V80.0912C99.8092 80.3706 99.8592 80.6507 99.9792 80.9138C100.099 81.177 100.285 81.4176 100.527 81.6208C100.79 81.8093 101.097 81.9542 101.431 82.0471C101.764 82.14 102.118 82.179 102.471 82.1618C102.906 82.161 103.337 82.0994 103.745 81.9799C104.161 81.8606 104.547 81.6855 104.89 81.4621L106.982 82.9451C106.359 83.4008 105.639 83.7627 104.855 84.0131C104.098 84.2604 103.289 84.3888 102.472 84.3913C101.436 84.4147 100.408 84.2404 99.4733 83.8831Z" fill="#040506"/>
<path d="M11 64.5264V92.5264H111V64.5264H11ZM109.421 91.0859H12.5788V65.9669H109.422L109.421 91.0859Z" fill="#040506"/>
<path d="M71.1212 33.595C76.6668 33.595 81.1625 29.0223 81.1625 23.3817C81.1625 17.7411 76.6668 13.1685 71.1212 13.1685C65.5756 13.1685 61.08 17.7411 61.08 23.3817C61.08 29.0223 65.5756 33.595 71.1212 33.595Z" fill="#DB0316"/>
<path d="M70.7709 29.2862C74.7195 29.2862 77.9204 26.0304 77.9204 22.0142C77.9204 17.998 74.7195 14.7422 70.7709 14.7422C66.8223 14.7422 63.6214 17.998 63.6214 22.0142C63.6214 26.0304 66.8223 29.2862 70.7709 29.2862Z" fill="white"/>
<path d="M0 0C0 0 68.3591 2.24275 103.169 17.1421L118.762 39.8919L69.1479 56.7133L41.8977 19.2251L71.8255 44.3777L90.4106 34.2835C90.4106 34.2835 65.839 17.9434 0 0Z" fill="#161615"/>
</svg>
