<svg width="119" height="90" viewBox="0 0 119 90" fill="none" xmlns="http://www.w3.org/2000/svg">
<path d="M65.5008 66H13V90H65.5008V66Z" fill="#040506"/>
<path d="M17.0775 71.1595H20.0227V82.7841H17.0775V71.1595ZM18.5606 80.6737H22.3122C23.2795 80.6737 24.0284 80.5005 24.5589 80.1541C24.8294 79.9678 25.0411 79.7392 25.1787 79.4848C25.3161 79.2304 25.3761 78.9564 25.3542 78.6827V75.2611C25.3761 74.9874 25.3161 74.7135 25.1787 74.4591C25.0411 74.2047 24.8294 73.9762 24.5589 73.7899C24.0284 73.4434 23.2795 73.2702 22.3122 73.2702H18.5606V71.1599H22.249C23.3965 71.1363 24.5366 71.3029 25.5867 71.6476C26.4699 71.9472 27.2047 72.4448 27.6882 73.0709C28.1909 73.7621 28.4394 74.5398 28.4086 75.3253V78.6191C28.4327 79.3814 28.1939 80.1357 27.715 80.8099C27.2397 81.4427 26.5132 81.951 25.6349 82.2652C24.5728 82.6336 23.4095 82.8114 22.2383 82.7846H18.5606V80.6737Z" fill="white"/>
<path d="M31.6588 82.269C31.0677 81.8454 30.7722 81.2018 30.7722 80.3381C30.7722 79.5174 31.1036 78.9018 31.7664 78.4912C32.4292 78.0806 33.4235 77.8755 34.7492 77.8758H37.5454L37.6959 79.5466H34.7612C34.4081 79.5274 34.0564 79.5963 33.7617 79.7424C33.6469 79.8153 33.5569 79.9073 33.499 80.0109C33.441 80.1146 33.4168 80.2269 33.4283 80.3388C33.4185 80.4581 33.4523 80.5773 33.526 80.6835C33.5999 80.7898 33.7109 80.8792 33.8475 80.9423C34.2385 81.092 34.677 81.1598 35.1159 81.1384C35.7141 81.1623 36.3125 81.0942 36.8737 80.9382C37.0445 80.8912 37.1915 80.806 37.2945 80.6944C37.3975 80.5828 37.4514 80.4501 37.4489 80.3147L37.6746 81.5219C37.6323 81.8195 37.4333 82.0926 37.1211 82.2813C36.763 82.5015 36.345 82.6611 35.8958 82.7492C35.3902 82.8547 34.8672 82.9072 34.3421 82.9052C33.1443 82.9048 32.2499 82.6927 31.6588 82.269ZM37.4474 77.5239C37.4602 77.3563 37.4203 77.1887 37.3307 77.0347C37.2411 76.8805 37.1044 76.7441 36.9314 76.6363C36.5071 76.41 35.9906 76.2999 35.4696 76.3245C35.0492 76.3252 34.6316 76.3766 34.2333 76.4766C33.8418 76.5711 33.4747 76.7144 33.1477 76.9003L31.3202 75.5653C31.8019 75.1679 32.4072 74.8645 33.0833 74.6815C33.8597 74.4651 34.6835 74.3581 35.5125 74.3659C36.3697 74.3483 37.2216 74.4725 38.0065 74.7295C38.6648 74.9523 39.2147 75.3208 39.5812 75.7846C39.9593 76.2942 40.1467 76.8699 40.1239 77.4516V82.7841H37.4474V77.5239Z" fill="white"/>
<path d="M43.0262 74.486H46.1866V82.7845H43.0262V74.486ZM48.7771 76.5568C48.5448 76.5006 48.3014 76.4735 48.0571 76.4767C47.7983 76.4657 47.5396 76.4984 47.3003 76.5725C47.061 76.6466 46.8475 76.7601 46.6758 76.9045C46.3258 77.2436 46.1521 77.6651 46.1866 78.0917L45.9609 75.9329C46.2247 75.4795 46.6366 75.0825 47.1593 74.7778C47.6219 74.5104 48.1913 74.3654 48.7771 74.366C49.2087 74.3612 49.6376 74.4168 50.0416 74.5298C50.4124 74.6366 50.7479 74.8015 51.0254 75.0133L49.3054 76.7963C49.1565 76.6872 48.9757 76.6053 48.7771 76.5568Z" fill="white"/>
<path d="M52.4215 71.1597H55.3669V82.7843H52.4215V71.1597ZM53.7976 79.7944L59.0002 74.4858H62.1177L54.1951 82.2088L53.7976 79.7944ZM56.442 78.4992L58.8713 77.4117L62.6645 82.7843H59.2583L56.442 78.4992Z" fill="white"/>
<path d="M69.0113 71.2832H71.9564V82.9067H69.0113V71.2832ZM70.0755 71.2832H79.4816V73.3935H70.0755V71.2832ZM70.0755 76.0801H78.2985V78.1904H70.0755V76.0801ZM70.0755 80.7972H79.4816V82.9074H70.0755V80.7972Z" fill="#040506"/>
<path d="M80.7711 74.6089H83.5441L87.2958 81.8206L85.4358 83.5868L80.7711 74.6089ZM91.0797 74.6089L86.1143 84.8506C85.9653 85.1815 85.7299 85.4871 85.4213 85.75C85.1428 85.9724 84.7905 86.1364 84.3999 86.2255C83.9129 86.3298 83.4072 86.3785 82.9005 86.3695H82.2448V84.2428H82.9005C83.1788 84.2503 83.4538 84.1961 83.6906 84.0873C83.922 83.9626 84.0904 83.7837 84.1689 83.5794L88.3073 74.6089H91.0797Z" fill="#040506"/>
<path d="M94.3955 82.5914C93.6495 82.3134 93.0385 81.869 92.649 81.3202C92.2273 80.6974 92.0203 80.0064 92.0472 79.3093V78.3742C92.0196 77.6497 92.2166 76.9303 92.6214 76.2712C92.981 75.7095 93.5675 75.2455 94.2989 74.9441C95.1184 74.6252 96.0346 74.4683 96.9592 74.4886C97.8501 74.4701 98.7264 74.6603 99.4639 75.0322C100.194 75.4282 100.746 75.9784 101.05 76.6112C101.437 77.4119 101.621 78.259 101.592 79.1095V79.6531H93.96V78.1739H98.905L98.8743 77.9821C98.8352 77.5732 98.6221 77.1841 98.2664 76.8711C98.0992 76.74 97.8961 76.6372 97.6707 76.5695C97.4453 76.5019 97.2038 76.471 96.9607 76.479C96.6564 76.4654 96.3512 76.5005 96.0668 76.5819C95.7824 76.6633 95.524 76.7891 95.3109 76.9509C94.893 77.3237 94.683 77.8016 94.7244 78.2861V79.3412C94.7044 79.5807 94.7504 79.8208 94.8608 80.0463C94.9712 80.2719 95.1422 80.4782 95.3645 80.6523C95.6068 80.8139 95.8889 80.9381 96.1964 81.0177C96.503 81.0973 96.8289 81.1308 97.1532 81.1161C97.5534 81.1153 97.9497 81.0625 98.3254 80.9601C98.708 80.8578 99.0637 80.7078 99.3788 80.5162L101.303 81.7874C100.73 82.1781 100.068 82.4882 99.3466 82.7029C98.6505 82.9148 97.906 83.0249 97.1539 83.027C96.201 83.047 95.2557 82.8977 94.3955 82.5914Z" fill="#040506"/>
<path d="M13 66V90H105V66H13ZM103.547 88.7653H14.4525V67.2347H103.548L103.547 88.7653Z" fill="#040506"/>
<path d="M71.1212 33.595C76.6668 33.595 81.1625 29.0223 81.1625 23.3817C81.1625 17.7411 76.6668 13.1685 71.1212 13.1685C65.5756 13.1685 61.08 17.7411 61.08 23.3817C61.08 29.0223 65.5756 33.595 71.1212 33.595Z" fill="#DB0316"/>
<path d="M70.7709 29.2862C74.7195 29.2862 77.9204 26.0304 77.9204 22.0142C77.9204 17.998 74.7195 14.7422 70.7709 14.7422C66.8223 14.7422 63.6214 17.998 63.6214 22.0142C63.6214 26.0304 66.8223 29.2862 70.7709 29.2862Z" fill="white"/>
<path d="M0 0C0 0 68.3591 2.24275 103.169 17.1421L118.762 39.8919L69.1479 56.7133L41.8977 19.2251L71.8255 44.3777L90.4106 34.2835C90.4106 34.2835 65.839 17.9434 0 0Z" fill="#161615"/>
</svg>
