<svg width="120" height="93" viewBox="0 0 120 93" fill="none" xmlns="http://www.w3.org/2000/svg">
<path d="M68.4793 60.7134H0V92.1874H68.4793V60.7134Z" fill="#040506"/>
<path d="M5.31854 67.4793H9.16007V82.7241H5.31854V67.4793ZM7.25298 79.9564H12.1464C13.4081 79.9564 14.3849 79.7293 15.0768 79.2751C15.4297 79.0307 15.7058 78.731 15.8852 78.3973C16.0645 78.0636 16.1428 77.7044 16.1142 77.3454V72.8583C16.1428 72.4994 16.0645 72.1402 15.8852 71.8065C15.7058 71.4729 15.4297 71.1732 15.0768 70.929C14.3849 70.4745 13.4081 70.2473 12.1464 70.2473H7.25298V67.4799H12.0639C13.5606 67.449 15.0477 67.6674 16.4175 68.1194C17.5694 68.5123 18.5279 69.165 19.1585 69.9859C19.8142 70.8925 20.1383 71.9123 20.0982 72.9425V77.2621C20.1296 78.2618 19.8181 79.2509 19.1935 80.1351C18.5735 80.965 17.6259 81.6316 16.4803 82.0437C15.095 82.5266 13.5776 82.7599 12.0499 82.7247H7.25298V79.9564Z" fill="white"/>
<path d="M24.3376 82.0485C23.5666 81.493 23.1811 80.6489 23.1811 79.5163C23.1811 78.44 23.6134 77.6327 24.478 77.0942C25.3425 76.5558 26.6394 76.2868 28.3686 76.2872H32.0158L32.2121 78.4782H28.3842C27.9236 78.4531 27.4649 78.5435 27.0805 78.7351C26.9308 78.8307 26.8134 78.9513 26.7378 79.0872C26.6622 79.2231 26.6307 79.3705 26.6457 79.5172C26.6329 79.6737 26.6769 79.83 26.7731 79.9693C26.8694 80.1086 27.0142 80.2259 27.1924 80.3086C27.7024 80.505 28.2744 80.5939 28.8468 80.5658C29.6271 80.5972 30.4077 80.5078 31.1397 80.3032C31.3624 80.2417 31.5542 80.13 31.6885 79.9836C31.8229 79.8372 31.8932 79.6632 31.8899 79.4856L32.1843 81.0688C32.1291 81.4591 31.8695 81.8172 31.4623 82.0647C30.9953 82.3534 30.45 82.5628 29.8641 82.6784C29.2046 82.8166 28.5225 82.8855 27.8376 82.8829C26.2752 82.8823 25.1086 82.6042 24.3376 82.0485ZM31.8879 75.8257C31.9047 75.6059 31.8526 75.3862 31.7357 75.1841C31.6189 74.982 31.4406 74.8031 31.2149 74.6616C30.6614 74.365 29.9878 74.2206 29.3082 74.2528C28.7598 74.2538 28.2152 74.3211 27.6956 74.4523C27.185 74.5762 26.7062 74.7641 26.2797 75.0079L23.8959 73.2572C24.5242 72.736 25.3138 72.3381 26.1956 72.0982C27.2083 71.8144 28.2828 71.674 29.3641 71.6843C30.4823 71.6612 31.5934 71.824 32.6172 72.1611C33.4758 72.4533 34.1931 72.9365 34.6711 73.5448C35.1643 74.213 35.4088 74.968 35.379 75.731V82.7241H31.8879V75.8257Z" fill="white"/>
<path d="M39.1646 71.8423H43.2869V82.7251H39.1646V71.8423ZM46.6658 74.5579C46.3627 74.4842 46.0453 74.4487 45.7266 74.4529C45.3891 74.4385 45.0516 74.4814 44.7395 74.5786C44.4274 74.6758 44.1489 74.8246 43.9249 75.0139C43.4684 75.4586 43.2419 76.0114 43.2869 76.5709L42.9925 73.7397C43.3365 73.1452 43.8738 72.6245 44.5556 72.2249C45.159 71.8742 45.9017 71.6842 46.6658 71.685C47.2287 71.6786 47.7882 71.7515 48.3151 71.8997C48.7988 72.0397 49.2364 72.256 49.5983 72.5338L47.3549 74.872C47.1606 74.729 46.9248 74.6215 46.6658 74.5579V74.5579Z" fill="white"/>
<path d="M51.4193 67.481H55.2612V82.7257H51.4193V67.481ZM53.2141 78.8047L60.0002 71.8429H64.0665L53.7326 81.971L53.2141 78.8047ZM56.6635 77.1061L59.832 75.68L64.7797 82.7257H60.3368L56.6635 77.1061Z" fill="white"/>
<path d="M73.0582 67.6416H76.8997V82.8848H73.0582V67.6416ZM74.4463 67.6416H86.7151V70.409H74.4463V67.6416ZM74.4463 73.9323H85.172V76.6997H74.4463V73.9323ZM74.4463 80.1183H86.7151V82.8857H74.4463V80.1183Z" fill="#040506"/>
<path d="M88.397 72.0034H92.014L96.9075 81.461L94.4815 83.7772L88.397 72.0034ZM101.843 72.0034L95.3664 85.4346C95.1721 85.8685 94.865 86.2694 94.4626 86.6141C94.0993 86.9057 93.6398 87.1207 93.1303 87.2376C92.495 87.3745 91.8355 87.4382 91.1745 87.4265H90.3193V84.6375H91.1745C91.5375 84.6473 91.8962 84.5763 92.2051 84.4335C92.5069 84.27 92.7266 84.0355 92.829 83.7676L98.2269 72.0034H101.843Z" fill="#040506"/>
<path d="M106.168 82.4717C105.195 82.1072 104.398 81.5243 103.89 80.8047C103.34 79.9879 103.07 79.0816 103.105 78.1675V76.9412C103.069 75.9911 103.326 75.0477 103.854 74.1834C104.323 73.4467 105.088 72.8381 106.042 72.4429C107.111 72.0247 108.306 71.819 109.512 71.8455C110.674 71.8213 111.817 72.0707 112.779 72.5584C113.731 73.0778 114.451 73.7993 114.848 74.6292C115.352 75.6793 115.592 76.7901 115.555 77.9055V78.6184H105.6V76.6786H112.05L112.01 76.4271C111.959 75.8908 111.681 75.3805 111.217 74.97C110.999 74.7981 110.734 74.6632 110.44 74.5745C110.146 74.4859 109.831 74.4454 109.514 74.4559C109.117 74.4381 108.719 74.484 108.348 74.5908C107.977 74.6975 107.64 74.8625 107.362 75.0747C106.817 75.5637 106.543 76.1904 106.597 76.8257V78.2093C106.571 78.5235 106.631 78.8383 106.775 79.1341C106.919 79.4299 107.142 79.7004 107.432 79.9287C107.748 80.1407 108.116 80.3036 108.517 80.408C108.917 80.5124 109.342 80.5563 109.765 80.537C110.287 80.536 110.804 80.4667 111.294 80.3324C111.793 80.1984 112.257 80.0015 112.668 79.7504L115.178 81.4174C114.431 81.9297 113.567 82.3364 112.626 82.6179C111.718 82.8959 110.747 83.0402 109.766 83.043C108.523 83.0692 107.29 82.8734 106.168 82.4717Z" fill="#040506"/>
<path d="M0 60.7134V92.1874H120V60.7134H0ZM118.105 90.5682H1.89462V62.3326H118.106L118.105 90.5682Z" fill="#040506"/>
<path d="M72.3279 33.5949C77.8736 33.5949 82.3692 29.0223 82.3692 23.3817C82.3692 17.7411 77.8736 13.1685 72.3279 13.1685C66.7823 13.1685 62.2867 17.7411 62.2867 23.3817C62.2867 29.0223 66.7823 33.5949 72.3279 33.5949Z" fill="#DB0316"/>
<path d="M71.9776 29.2862C75.9262 29.2862 79.1272 26.0304 79.1272 22.0142C79.1272 17.998 75.9262 14.7422 71.9776 14.7422C68.0291 14.7422 64.8281 17.998 64.8281 22.0142C64.8281 26.0304 68.0291 29.2862 71.9776 29.2862Z" fill="white"/>
<path d="M1.20676 0C1.20676 0 69.5659 2.24275 104.376 17.1421L119.969 39.8918L70.3547 56.7133L43.1044 19.225L73.0323 44.3777L91.6173 34.2834C91.6173 34.2834 67.0457 17.9434 1.20676 0Z" fill="#161615"/>
</svg>
