<svg xmlns="http://www.w3.org/2000/svg" width="31.285" height="30.187" viewBox="0 0 31.285 30.187">
  <g id="Polygon_6" data-name="Polygon 6" transform="translate(10.5) rotate(30)" fill="#25313a">
    <path d="M 20.55363845825195 20.5 L 3.446359157562256 20.5 C 2.905478954315186 20.5 2.42047905921936 20.22071075439453 2.148998975753784 19.75288963317871 C 1.877508997917175 19.28507041931152 1.875639081001282 18.72541046142578 2.143989086151123 18.25579071044922 L 10.69762897491455 3.286920547485352 C 10.96805858612061 2.81367039680481 11.45492935180664 2.53113055229187 11.99999904632568 2.53113055229187 C 12.54506874084473 2.53113055229187 13.03193950653076 2.81367039680481 13.30236911773682 3.286920547485352 L 21.85600852966309 18.25579071044922 C 22.12435913085938 18.72541046142578 22.12248992919922 19.28507995605469 21.85100936889648 19.75288963317871 C 21.57951927185059 20.22071075439453 21.09452819824219 20.5 20.55363845825195 20.5 Z" stroke="none"/>
    <path d="M 11.99999904632568 3.031129837036133 C 11.8255090713501 3.031129837036133 11.39160919189453 3.080230712890625 11.13174915313721 3.534990310668945 L 2.578119277954102 18.50386047363281 C 2.320249557495117 18.95513153076172 2.494539260864258 19.35217094421387 2.581449508666992 19.50193023681641 C 2.668359756469727 19.65167999267578 2.926609039306641 20 3.446359634399414 20 L 20.55363845825195 20 C 21.07339859008789 20 21.33163833618164 19.65167999267578 21.41854858398438 19.50193023681641 C 21.50545883178711 19.35217094421387 21.67975997924805 18.95514106750488 21.42188835144043 18.50386047363281 L 12.86824893951416 3.534990310668945 C 12.60837936401367 3.080230712890625 12.17448902130127 3.031129837036133 11.99999904632568 3.031129837036133 M 11.99999904632568 2.0311279296875 C 12.67629623413086 2.0311279296875 13.35259437561035 2.367034912109375 13.73648929595947 3.038850784301758 L 22.29012870788574 18.00772094726563 C 23.0520191192627 19.34103965759277 22.08928871154785 21 20.55363845825195 21 L 3.446359634399414 21 C 1.91071891784668 21 0.9479789733886719 19.34103965759277 1.709869384765625 18.00772094726563 L 10.26350879669189 3.038850784301758 C 10.64740371704102 2.367034912109375 11.32370185852051 2.0311279296875 11.99999904632568 2.0311279296875 Z" stroke="none" fill="#484e53"/>
  </g>
</svg>
