<svg xmlns="http://www.w3.org/2000/svg" width="31.222" height="26.415" viewBox="0 0 31.222 26.415">
  <g id="curvature" transform="translate(0 -39.469)">
    <path id="Path_14418" data-name="Path 14418" d="M0,0H5.372V11.545H0Z" transform="translate(19.262 43.267) rotate(-45)" fill="#fff"/>
    <path id="Path_14419" data-name="Path 14419" d="M124.152,119.939l-6.858,4.08-4.023,14.191,7.877-7.859-.008-1.844,3.143-.036.036,3.157-1.867.008-7.888,7.871,14.339-4.133,3.8-6.879Z" transform="translate(-106.363 -75.562)" fill="#fff"/>
    <path id="Path_14420" data-name="Path 14420" d="M6.908,223.686l-.646.646a2.592,2.592,0,0,1-3.746-3.581L3.752,219.4a4.415,4.415,0,0,0-.138-6.11l-2.321-2.321L0,212.26l2.321,2.321a2.588,2.588,0,0,1,.081,3.581l-1.237,1.354a4.422,4.422,0,0,0,6.392,6.11l.646-.646h0Z" transform="translate(0 -161.038)" fill="#fff"/>
  </g>
</svg>
