<svg xmlns="http://www.w3.org/2000/svg" width="28.685" height="29.895" viewBox="0 0 28.685 29.895">
  <g id="discount_3_" data-name="discount (3)" transform="translate(-10.359 0.002)">
    <g id="Group_15160" data-name="Group 15160" transform="translate(10.359 -0.002)">
      <g id="Group_15159" data-name="Group 15159" transform="translate(0 0)">
        <path id="Path_14406" data-name="Path 14406" d="M37.661,15.333a.876.876,0,0,1,0-.774l1.115-2.281a2.6,2.6,0,0,0-1.12-3.446l-2.243-1.19a.876.876,0,0,1-.455-.626l-.439-2.5a2.6,2.6,0,0,0-2.932-2.13l-2.514.356a.876.876,0,0,1-.736-.239L26.513.735a2.6,2.6,0,0,0-3.624,0L21.065,2.5a.876.876,0,0,1-.736.239l-2.514-.356a2.6,2.6,0,0,0-2.932,2.13l-.439,2.5a.876.876,0,0,1-.455.627l-2.243,1.19a2.6,2.6,0,0,0-1.12,3.446l1.115,2.281a.876.876,0,0,1,0,.774l-1.115,2.281a2.6,2.6,0,0,0,1.12,3.446l2.243,1.19a.876.876,0,0,1,.455.626l.439,2.5a2.594,2.594,0,0,0,2.558,2.156,2.666,2.666,0,0,0,.373-.026l2.514-.356a.876.876,0,0,1,.736.239l1.825,1.765a2.6,2.6,0,0,0,3.624,0l1.825-1.765a.877.877,0,0,1,.736-.239l2.514.356a2.6,2.6,0,0,0,2.932-2.13l.439-2.5a.876.876,0,0,1,.455-.627l2.243-1.19a2.6,2.6,0,0,0,1.12-3.446ZM21.253,7.187a3.161,3.161,0,1,1-3.161,3.161A3.165,3.165,0,0,1,21.253,7.187ZM19.622,21.245A.862.862,0,0,1,18.4,20.026L29.782,8.646A.862.862,0,0,1,31,9.866ZM28.15,22.7a3.161,3.161,0,1,1,3.161-3.161A3.165,3.165,0,0,1,28.15,22.7Z" transform="translate(-10.359 0.002)" fill="#fff"/>
      </g>
    </g>
    <g id="Group_15162" data-name="Group 15162" transform="translate(26.713 18.107)">
      <g id="Group_15161" data-name="Group 15161" transform="translate(0)">
        <path id="Path_14407" data-name="Path 14407" d="M291.889,310.141a1.437,1.437,0,1,0,1.437,1.437A1.438,1.438,0,0,0,291.889,310.141Z" transform="translate(-290.452 -310.141)" fill="#fff"/>
      </g>
    </g>
    <g id="Group_15164" data-name="Group 15164" transform="translate(19.816 8.911)">
      <g id="Group_15163" data-name="Group 15163">
        <path id="Path_14408" data-name="Path 14408" d="M173.77,152.646a1.437,1.437,0,1,0,1.437,1.437A1.438,1.438,0,0,0,173.77,152.646Z" transform="translate(-172.333 -152.646)" fill="#fff"/>
      </g>
    </g>
  </g>
</svg>
