<svg id="star_2_" data-name="star (2)" xmlns="http://www.w3.org/2000/svg" width="32.539" height="32.539" viewBox="0 0 32.539 32.539">
  <g id="Group_15165" data-name="Group 15165">
    <path id="Path_14412" data-name="Path 14412" d="M16.27,0a16.27,16.27,0,1,0,16.27,16.27A16.3,16.3,0,0,0,16.27,0Zm0,30.633A14.363,14.363,0,1,1,30.633,16.27,14.379,14.379,0,0,1,16.27,30.633Zm9.2-18.252L19.7,11.542l-2.58-5.227a.953.953,0,0,0-1.71,0l-2.58,5.227-5.769.838a.953.953,0,0,0-.528,1.626l4.174,4.069-.985,5.745a.953.953,0,0,0,1.383,1l5.16-2.713,5.16,2.713a.953.953,0,0,0,1.383-1l-.985-5.745L26,14.006a.953.953,0,0,0-.528-1.626Zm-5.336,4.68a.953.953,0,0,0-.274.844l.744,4.336-3.894-2.047a.953.953,0,0,0-.887,0l-3.894,2.047.744-4.336a.953.953,0,0,0-.274-.844l-3.15-3.071,4.353-.633a.953.953,0,0,0,.718-.522L16.27,8.891l1.947,3.945a.953.953,0,0,0,.718.522l4.353.633Z" fill="#fff"/>
  </g>
</svg>
