<svg xmlns="http://www.w3.org/2000/svg" width="29.398" height="22.305" viewBox="0 0 29.398 22.305">
  <g id="text-formatting" transform="translate(0 -61.767)">
    <g id="Page-1_23_" transform="translate(0 61.767)">
      <g id="_x30_24---Text-Magnification" transform="translate(0 0)">
        <path id="Shape_37_" d="M21.259,83.382,13.153,62.416a1,1,0,0,0-.943-.649H9.078a1.014,1.014,0,0,0-.943.649L.034,83.382a.507.507,0,0,0,.471.689H3.7a.513.513,0,0,0,.477-.324l1.688-4.42A.507.507,0,0,1,6.34,79h8.607a.513.513,0,0,1,.477.324l1.688,4.42a.507.507,0,0,0,.471.324h3.2a.51.51,0,0,0,.476-.689Zm-7.923-7.928H7.952a.531.531,0,0,1-.5-.725l2.692-7.041a.53.53,0,0,1,.994,0l2.7,7.041a.536.536,0,0,1-.5.725Z" transform="translate(0 -61.767)" fill="#fff"/>
        <path id="Shape_36_" d="M358.338,249.795l-4.111-10.823a1.014,1.014,0,0,0-.948-.654h-1.47a1.014,1.014,0,0,0-.948.654l-1.845,4.856,1.227,3.183a.472.472,0,0,1,.264-.076h4.076a.507.507,0,0,1,.471.319l1.166,2.91a.507.507,0,0,0,.471.319h1.176a.507.507,0,0,0,.471-.689Zm-4.577-4.887h-2.428a.256.256,0,0,1-.238-.355l1.212-3.031a.253.253,0,0,1,.476,0L354,244.553a.258.258,0,0,1-.238.355Z" transform="translate(-328.974 -228.18)" fill="#fff"/>
      </g>
    </g>
  </g>
</svg>
