<svg xmlns="http://www.w3.org/2000/svg" width="24.23" height="19.454" viewBox="0 0 24.23 19.454">
  <g id="ask" transform="translate(-4 -9.521)">
    <path id="path1017" d="M16.653,53.346a.433.433,0,1,0,0-.865H8.433a.433.433,0,1,0,0,.865" transform="translate(-2.269 -24.372)" fill="#fff" fill-rule="evenodd"/>
    <path id="path1019" d="M43.654,53.346a.433.433,0,1,0,0-.865H35.433a.433.433,0,1,0,0,.865" transform="translate(-17.587 -24.372)" fill="#fff" fill-rule="evenodd"/>
    <path id="path1021" d="M31.865,52.914a.433.433,0,1,1-.433-.433A.433.433,0,0,1,31.865,52.914Z" transform="translate(-15.317 -24.372)" fill="#fff" fill-rule="evenodd"/>
    <path id="path1023" d="M58.865,52.914a.433.433,0,1,1-.433-.433A.433.433,0,0,1,58.865,52.914Z" transform="translate(-30.635 -24.372)" fill="#fff" fill-rule="evenodd"/>
    <path id="path1025" d="M4.865,52.914a.433.433,0,1,1-.433-.433A.433.433,0,0,1,4.865,52.914Z" transform="translate(0 -24.372)" fill="#fff" fill-rule="evenodd"/>
    <path id="path1027" d="M11.923,22.5H5.432a.433.433,0,0,1-.306-.739l2.089-2.089a1.3,1.3,0,0,0,.38-.918V13.415A3.894,3.894,0,0,1,11.49,9.521h6.058a3.894,3.894,0,0,1,3.894,3.894v.415h.433a3.894,3.894,0,0,1,3.894,3.894v5.341a1.3,1.3,0,0,0,.38.918l2.089,2.089a.433.433,0,0,1-.306.739H15.817a3.894,3.894,0,0,1-3.894-3.894Zm6.923.848a.433.433,0,1,1-.433.433A.433.433,0,0,1,18.846,23.35Zm-1.3-4.76v-.433a.865.865,0,0,1,.865-.865h.917a.814.814,0,0,1,.813.813h0a.735.735,0,0,1-.216.521l-.881.881a2.165,2.165,0,0,0-.633,1.53v1.014a.433.433,0,1,0,.865,0V21.038a1.3,1.3,0,0,1,.38-.918l.881-.881a1.6,1.6,0,0,0,.469-1.133h0a1.679,1.679,0,0,0-1.679-1.679h-.917a1.731,1.731,0,0,0-1.731,1.731v.433a.433.433,0,0,0,.865,0Zm3.028-4.76v-.415a3.029,3.029,0,0,0-3.029-3.029H11.49a3.028,3.028,0,0,0-3.029,3.029v5.341a2.163,2.163,0,0,1-.633,1.53l-1.35,1.351h5.446V17.725a3.894,3.894,0,0,1,3.894-3.894Z" transform="translate(-0.567)" fill="#fff" fill-rule="evenodd"/>
  </g>
</svg>
