<svg xmlns="http://www.w3.org/2000/svg" width="25.883" height="29.449" viewBox="0 0 25.883 29.449">
  <g id="bin_2" data-name="bin 2" transform="translate(-31)">
    <g id="Group_15135" data-name="Group 15135" transform="translate(32.795 8.628)">
      <g id="Group_15134" data-name="Group 15134">
        <path id="Path_14395" data-name="Path 14395" d="M62.2,150l1.528,18.448a2.6,2.6,0,0,0,2.578,2.373H80.392a2.6,2.6,0,0,0,2.578-2.373L84.5,150Zm6.832,17.37a.863.863,0,0,1-.86-.809l-.863-13.919a.863.863,0,0,1,.807-.915.85.85,0,0,1,.915.807l.863,13.919A.863.863,0,0,1,69.037,167.37Zm5.177-.863a.863.863,0,1,1-1.726,0V152.588a.863.863,0,0,1,1.726,0Zm5.175-13.865-.863,13.919a.863.863,0,1,1-1.722-.108l.863-13.919a.877.877,0,0,1,.915-.807A.863.863,0,0,1,79.389,152.642Z" transform="translate(-62.205 -150)" fill="#f6bb7e"/>
      </g>
    </g>
    <g id="Group_15137" data-name="Group 15137" transform="translate(31)">
      <g id="Group_15136" data-name="Group 15136">
        <path id="Path_14396" data-name="Path 14396" d="M55.158,3.451H49.981V2.588A2.591,2.591,0,0,0,47.393,0h-6.9A2.591,2.591,0,0,0,37.9,2.588v.863H32.726a1.726,1.726,0,1,0,0,3.451H55.158a1.726,1.726,0,1,0,0-3.451Zm-6.9,0H39.628V2.588a.863.863,0,0,1,.863-.863h6.9a.863.863,0,0,1,.863.863Z" transform="translate(-31)" fill="#f6bb7e"/>
      </g>
    </g>
  </g>
</svg>
