<svg xmlns="http://www.w3.org/2000/svg" width="41.106" height="42.038" viewBox="0 0 41.106 42.038">
  <g id="calendar_4_" data-name="calendar (4)" transform="translate(-5.411)">
    <g id="Group_15176" data-name="Group 15176" transform="translate(5.411)">
      <path id="Path_14421" data-name="Path 14421" d="M122.272,259.2a.954.954,0,0,0-.954-.953h-3.33a.954.954,0,0,0-.954.953v3.329a.954.954,0,0,0,.954.954h3.33a.954.954,0,0,0,.954-.954V259.2Z" transform="translate(-107.422 -236.003)" fill="#fff"/>
      <path id="Path_14422" data-name="Path 14422" d="M218.907,259.2a.953.953,0,0,0-.953-.953h-3.33a.954.954,0,0,0-.954.953v3.329a.954.954,0,0,0,.954.954h3.33a.954.954,0,0,0,.953-.954Z" transform="translate(-195.736 -236.003)" fill="#fff"/>
      <path id="Path_14423" data-name="Path 14423" d="M315.535,259.2a.954.954,0,0,0-.954-.953h-3.33a.954.954,0,0,0-.954.953v3.329a.954.954,0,0,0,.954.954h3.33a.954.954,0,0,0,.954-.954Z" transform="translate(-284.042 -236.003)" fill="#fff"/>
      <path id="Path_14424" data-name="Path 14424" d="M122.272,355.829a.953.953,0,0,0-.954-.954h-3.33a.953.953,0,0,0-.954.954v3.329a.954.954,0,0,0,.954.954h3.33a.954.954,0,0,0,.954-.954v-3.329Z" transform="translate(-107.422 -324.315)" fill="#fff"/>
      <path id="Path_14425" data-name="Path 14425" d="M218.907,355.829a.953.953,0,0,0-.953-.954h-3.33a.953.953,0,0,0-.954.954v3.329a.954.954,0,0,0,.954.954h3.33a.954.954,0,0,0,.953-.954Z" transform="translate(-195.736 -324.315)" fill="#fff"/>
      <path id="Path_14426" data-name="Path 14426" d="M315.535,355.829a.953.953,0,0,0-.953-.954h-3.33a.953.953,0,0,0-.954.954v3.329a.954.954,0,0,0,.954.954h3.33a.954.954,0,0,0,.953-.954v-3.329Z" transform="translate(-284.042 -324.315)" fill="#fff"/>
      <path id="Path_14427" data-name="Path 14427" d="M42.858,54.16v5.085A4.153,4.153,0,0,1,38.7,63.4H36.069a4.175,4.175,0,0,1-4.188-4.151v-5.1H20.046v5.1A4.174,4.174,0,0,1,15.859,63.4H13.232A4.153,4.153,0,0,1,9.07,59.245V54.16a3.785,3.785,0,0,0-3.659,3.765v29.8a3.787,3.787,0,0,0,3.768,3.79h33.57a3.791,3.791,0,0,0,3.768-3.79v-29.8A3.785,3.785,0,0,0,42.858,54.16Zm-1.22,31.711A1.629,1.629,0,0,1,40.009,87.5H11.847a1.629,1.629,0,0,1-1.629-1.629V70.478a1.629,1.629,0,0,1,1.629-1.629H40.009a1.629,1.629,0,0,1,1.629,1.629V85.871Z" transform="translate(-5.411 -49.48)" fill="#fff"/>
      <path id="Path_14428" data-name="Path 14428" d="M80.978,11.19h2.6A1.427,1.427,0,0,0,85,9.764V1.427A1.427,1.427,0,0,0,83.575,0h-2.6A1.427,1.427,0,0,0,79.55,1.427V9.764A1.427,1.427,0,0,0,80.978,11.19Z" transform="translate(-73.165)" fill="#fff"/>
      <path id="Path_14429" data-name="Path 14429" d="M345.886,11.19h2.6a1.427,1.427,0,0,0,1.427-1.427V1.427A1.427,1.427,0,0,0,348.483,0h-2.6a1.427,1.427,0,0,0-1.428,1.427V9.764A1.427,1.427,0,0,0,345.886,11.19Z" transform="translate(-315.261)" fill="#fff"/>
    </g>
  </g>
</svg>
