<svg xmlns="http://www.w3.org/2000/svg" width="27.655" height="24.239" viewBox="0 0 27.655 24.239">
  <g id="chatting" transform="translate(0 -31.622)">
    <path id="Path_14382" data-name="Path 14382" d="M19.123,31.622h-16A3.131,3.131,0,0,0,0,34.749V48.766a.811.811,0,0,0,1.281.66l4.455-3.178a2.181,2.181,0,0,1,1.273-.407h9.8a3.131,3.131,0,0,0,3.127-3.127V32.432A.811.811,0,0,0,19.123,31.622Zm-3.935,9.815H5.826a.81.81,0,1,1,0-1.62h9.361a.81.81,0,1,1,0,1.62Zm0-3.781H5.826a.81.81,0,0,1,0-1.62h9.361a.81.81,0,0,1,0,1.62Z" fill="#f6bb7e"/>
    <path id="Path_14383" data-name="Path 14383" d="M162.9,151.09v14.016a.811.811,0,0,1-1.281.66l-4.455-3.178a2.181,2.181,0,0,0-1.273-.407h-9.8a3.131,3.131,0,0,1-3.127-3.128v-1.536h9.083a4.753,4.753,0,0,0,4.748-4.748v-4.807h2.975A3.131,3.131,0,0,1,162.9,151.09Z" transform="translate(-135.248 -110.056)" fill="#f6bb7e"/>
  </g>
</svg>
