<svg xmlns="http://www.w3.org/2000/svg" width="17.67" height="22.731" viewBox="0 0 17.67 22.731">
  <g id="clipboard_1_" data-name="clipboard (1)" transform="translate(-57)">
    <path id="Path_15080" data-name="Path 15080" d="M115,5.638h8.7a2,2,0,0,0,2-2V2a2,2,0,0,0-2-2H115a2,2,0,0,0-2,2V3.641A2,2,0,0,0,115,5.638Z" transform="translate(-53.514)" fill="#fff"/>
    <path id="Path_15081" data-name="Path 15081" d="M73.516,67.3v.653a3.334,3.334,0,0,1-3.33,3.33h-8.7a3.334,3.334,0,0,1-3.33-3.33V67.3A3.328,3.328,0,0,0,57,69.815v13.9a3.334,3.334,0,0,0,3.33,3.33H71.34a3.334,3.334,0,0,0,3.33-3.33v-13.9A3.328,3.328,0,0,0,73.516,67.3ZM62.825,81.322a.666.666,0,1,1-1.084.774l-.346-.484-.346.484a.666.666,0,1,1-1.084-.774l.611-.856-.611-.856a.666.666,0,1,1,1.084-.774l.346.484.346-.484a.666.666,0,1,1,1.084.774l-.611.856Zm.68-6.64-1.776,2.127a.666.666,0,0,1-1.107-.129l-.71-1.418a.666.666,0,1,1,1.191-.6l.255.509,1.125-1.347a.666.666,0,0,1,1.022.854Zm7.658,6.506H67.256a.666.666,0,0,1,0-1.332h3.907a.666.666,0,0,1,0,1.332Zm0-5.2H67.256a.666.666,0,1,1,0-1.332h3.907a.666.666,0,1,1,0,1.332Z" transform="translate(0 -64.31)" fill="#fff"/>
  </g>
</svg>
