<svg xmlns="http://www.w3.org/2000/svg" width="18.296" height="22.527" viewBox="0 0 18.296 22.527">
  <g id="delete" transform="translate(0 0)">
    <path id="Path_10735" data-name="Path 10735" d="M222.926,154.7a.528.528,0,0,0-.528.528V165.2a.528.528,0,0,0,1.055,0v-9.971A.528.528,0,0,0,222.926,154.7Zm0,0" transform="translate(-210.666 -146.541)" fill="#f4af81"/>
    <path id="Path_10736" data-name="Path 10736" d="M104.926,154.7a.528.528,0,0,0-.528.528V165.2a.528.528,0,0,0,1.055,0v-9.971A.528.528,0,0,0,104.926,154.7Zm0,0" transform="translate(-98.891 -146.541)" fill="#f4af81"/>
    <path id="Path_10737" data-name="Path 10737" d="M1.5,6.705v13a2.911,2.911,0,0,0,.774,2.007,2.6,2.6,0,0,0,1.885.815h9.982a2.6,2.6,0,0,0,1.885-.815,2.911,2.911,0,0,0,.774-2.007v-13a2.015,2.015,0,0,0-.517-3.963h-2.7V2.083A2.072,2.072,0,0,0,11.487,0H6.8A2.072,2.072,0,0,0,4.713,2.083v.659h-2.7A2.015,2.015,0,0,0,1.5,6.705ZM14.136,21.471H4.154A1.671,1.671,0,0,1,2.55,19.7V6.752H15.74V19.7A1.671,1.671,0,0,1,14.136,21.471ZM5.769,2.083A1.016,1.016,0,0,1,6.8,1.054h4.685a1.016,1.016,0,0,1,1.034,1.029v.659H5.769ZM2.012,3.8H16.278a.95.95,0,1,1,0,1.9H2.012a.95.95,0,1,1,0-1.9Zm0,0" transform="translate(0.003 0.001)" fill="#f4af81"/>
    <path id="Path_10738" data-name="Path 10738" d="M163.926,154.7a.528.528,0,0,0-.528.528V165.2a.528.528,0,0,0,1.055,0v-9.971A.528.528,0,0,0,163.926,154.7Zm0,0" transform="translate(-154.778 -146.541)" fill="#f4af81"/>
  </g>
</svg>
