<svg xmlns="http://www.w3.org/2000/svg" width="21.936" height="21.936" viewBox="0 0 21.936 21.936">
  <g id="Group_15277" data-name="Group 15277" transform="translate(-1493.411 -947.032)">
    <g id="Group_10725" data-name="Group 10725" transform="translate(1493.411 947.032)">
      <path id="Path_10760" data-name="Path 10760" d="M108.478,262.1a.852.852,0,0,0,.635.284h.029a.852.852,0,0,0,.643-.328l4.439-5.693a.852.852,0,0,0-1.344-1.048l-3.812,4.889-1.713-1.913a.852.852,0,0,0-1.27,1.137Z" transform="translate(-99.167 -246.722)" fill="#f4ad81"/>
      <path id="Path_10761" data-name="Path 10761" d="M58.02,213.109a10.968,10.968,0,1,0-10.968-10.968A10.98,10.98,0,0,0,58.02,213.109Zm0-20.231a9.263,9.263,0,1,1-9.263,9.263A9.274,9.274,0,0,1,58.02,192.878Z" transform="translate(-47.052 -191.173)" fill="#f4ad81"/>
    </g>
  </g>
</svg>
