<svg id="edit" xmlns="http://www.w3.org/2000/svg" width="21.027" height="20.921" viewBox="0 0 21.027 20.921">
  <path id="Path_10733" data-name="Path 10733" d="M19.407,50.263a.524.524,0,0,0-.524.524v4.65a1.573,1.573,0,0,1-1.571,1.571H2.618a1.573,1.573,0,0,1-1.571-1.571V41.79a1.573,1.573,0,0,1,1.571-1.571h4.65a.524.524,0,1,0,0-1.047H2.618A2.621,2.621,0,0,0,0,41.79V55.437a2.621,2.621,0,0,0,2.618,2.618H17.313a2.621,2.621,0,0,0,2.618-2.618v-4.65A.524.524,0,0,0,19.407,50.263Zm0,0" transform="translate(0 -37.134)"/>
  <path id="Path_10734" data-name="Path 10734" d="M122.248.951a2.357,2.357,0,0,0-3.333,0l-9.343,9.343a.524.524,0,0,0-.134.231l-1.229,4.436a.524.524,0,0,0,.644.645l4.436-1.229a.524.524,0,0,0,.231-.134L122.862,4.9a2.359,2.359,0,0,0,0-3.333Zm-11.535,9.683,7.646-7.647,2.466,2.466L113.179,13.1Zm-.493.988,1.97,1.97-2.725.755Zm11.9-7.465-.555.555L119.1,2.247l.556-.555a1.309,1.309,0,0,1,1.851,0l.615.615A1.311,1.311,0,0,1,122.122,4.158Zm0,0" transform="translate(-102.524 -0.261)"/>
</svg>
