<svg xmlns="http://www.w3.org/2000/svg" width="19.711" height="19.711" viewBox="0 0 19.711 19.711">
  <g id="Group_15276" data-name="Group 15276" transform="translate(-1593 -162.697)">
    <path id="Path_14570" data-name="Path 14570" d="M9.855,0a9.855,9.855,0,1,0,9.855,9.855A9.866,9.866,0,0,0,9.855,0Zm0,18.184a8.329,8.329,0,1,1,8.329-8.329A8.338,8.338,0,0,1,9.855,18.184Z" transform="translate(1593 162.697)" fill="#f4ad82"/>
    <path id="Path_14571" data-name="Path 14571" d="M145.419,139.055h-3.054V136a.763.763,0,1,0-1.527,0v3.054h-3.054a.763.763,0,1,0,0,1.527h3.054v3.054a.763.763,0,1,0,1.527,0v-3.054h3.054a.763.763,0,1,0,0-1.527Z" transform="translate(1461.254 32.664)" fill="#f4ad82"/>
  </g>
</svg>
