<svg width="24" height="24" viewBox="0 0 24 24" fill="none" xmlns="http://www.w3.org/2000/svg">
<path d="M22.5369 1.24268H18.0143C17.8202 1.24268 17.6628 1.40008 17.6628 1.59424C17.6628 1.78839 17.8202 1.9458 18.0143 1.9458H22.5369C22.956 1.9458 23.2969 2.28672 23.2969 2.70579V16.0639H0.703125V2.70579C0.703125 2.28672 1.04405 1.9458 1.46311 1.9458H16.3737C16.5678 1.9458 16.7252 1.78839 16.7252 1.59424C16.7252 1.40008 16.5678 1.24268 16.3737 1.24268H1.46311C0.656344 1.24268 0 1.89902 0 2.70579V17.179C0 17.9857 0.656344 18.6421 1.46311 18.6421H4.82878C5.02294 18.6421 5.18034 18.4847 5.18034 18.2905C5.18034 18.0963 5.02294 17.9389 4.82878 17.9389H1.46311C1.04405 17.9389 0.703125 17.598 0.703125 17.179V16.7671H23.2969V17.179C23.2969 17.598 22.956 17.9389 22.5369 17.9389H6.45394C6.25978 17.9389 6.10238 18.0963 6.10238 18.2905C6.10238 18.4847 6.25978 18.6421 6.45394 18.6421H8.66663L8.31952 20.6481H7.67798C7.09641 20.6481 6.6233 21.1212 6.6233 21.7028C6.6233 22.2843 7.09641 22.7575 7.67798 22.7575H16.322C16.9036 22.7575 17.3767 22.2843 17.3767 21.7028C17.3767 21.1212 16.9036 20.6481 16.322 20.6481H15.6805L15.3334 18.6421H22.5368C23.3436 18.6421 24 17.9857 24 17.179V2.70579C24 1.89902 23.3437 1.24268 22.5369 1.24268ZM14.9669 20.6481H14.0098C13.8157 20.6481 13.6583 20.8055 13.6583 20.9996C13.6583 21.1938 13.8157 21.3512 14.0098 21.3512H16.322C16.5159 21.3512 16.6736 21.5089 16.6736 21.7028C16.6736 21.8966 16.5159 22.0543 16.322 22.0543H7.67798C7.48411 22.0543 7.32642 21.8966 7.32642 21.7028C7.32642 21.5089 7.48411 21.3512 7.67798 21.3512H12.3686C12.5628 21.3512 12.7202 21.1938 12.7202 20.9996C12.7202 20.8055 12.5628 20.6481 12.3686 20.6481H9.03309L9.3802 18.6421H14.6198L14.9669 20.6481Z" fill="white"/>
<path d="M19.018 10.1382C18.8858 10.1382 18.7647 10.2124 18.7047 10.3303L17.0456 13.5912L15.6455 10.8394C15.5855 10.7215 15.4645 10.6472 15.3322 10.6472C15.1999 10.6472 15.0788 10.7215 15.0188 10.8394L14.2599 12.3311H13.0481C12.8539 12.3311 12.6965 12.4885 12.6965 12.6827C12.6965 12.8768 12.8539 13.0342 13.0481 13.0342H14.4754C14.6077 13.0342 14.7288 12.96 14.7888 12.8421L15.3322 11.7741L16.7322 14.5259C16.7922 14.6438 16.9133 14.7181 17.0456 14.7181C17.1779 14.7181 17.299 14.6438 17.359 14.5259L19.018 11.2651L19.8204 12.8421C19.8804 12.96 20.0015 13.0343 20.1338 13.0343H21.5611C21.7553 13.0343 21.9127 12.8769 21.9127 12.6827C21.9127 12.4885 21.7553 12.3311 21.5611 12.3311H20.3493L19.3314 10.3304C19.2714 10.2124 19.1503 10.1382 19.018 10.1382Z" fill="white"/>
<path d="M13.0483 9.09648H14.8726C15.0668 9.09648 15.2242 8.93907 15.2242 8.74491V5.04395C15.2242 4.84979 15.0668 4.69238 14.8726 4.69238H13.0483C12.8541 4.69238 12.6967 4.84979 12.6967 5.04395V8.74491C12.6967 8.93907 12.8541 9.09648 13.0483 9.09648ZM13.3998 5.39551H14.521V8.39335H13.3998V5.39551Z" fill="white"/>
<path d="M18.2292 5.69824H16.4049C16.2108 5.69824 16.0533 5.85565 16.0533 6.0498V8.74507C16.0533 8.93923 16.2108 9.09663 16.4049 9.09663H18.2292C18.4234 9.09663 18.5808 8.93923 18.5808 8.74507V6.0498C18.5808 5.85565 18.4234 5.69824 18.2292 5.69824ZM17.8777 8.39351H16.7565V6.40137H17.8777V8.39351Z" fill="white"/>
<path d="M21.5611 9.09663C21.7553 9.09663 21.9127 8.93923 21.9127 8.74507V4.11621C21.9127 3.92205 21.7553 3.76465 21.5611 3.76465H19.7368C19.5427 3.76465 19.3853 3.92205 19.3853 4.11621V8.74507C19.3853 8.93923 19.5427 9.09663 19.7368 9.09663H21.5611ZM20.0884 4.46777H21.2096V8.39351H20.0884V4.46777Z" fill="white"/>
<path d="M10.4015 7.7417H2.43274C2.23858 7.7417 2.08118 7.89911 2.08118 8.09326C2.08118 8.28742 2.23858 8.44482 2.43274 8.44482H10.4015C10.5956 8.44482 10.7531 8.28742 10.7531 8.09326C10.7531 7.89911 10.5956 7.7417 10.4015 7.7417Z" fill="white"/>
<path d="M2.43274 10.312H3.85877C4.05293 10.312 4.21033 10.1546 4.21033 9.96045C4.21033 9.76629 4.05293 9.60889 3.85877 9.60889H2.43274C2.23858 9.60889 2.08118 9.76629 2.08118 9.96045C2.08118 10.1546 2.23858 10.312 2.43274 10.312Z" fill="white"/>
<path d="M10.4015 9.60889H5.4696C5.27545 9.60889 5.11804 9.76629 5.11804 9.96045C5.11804 10.1546 5.27545 10.312 5.4696 10.312H10.4015C10.5956 10.312 10.753 10.1546 10.753 9.96045C10.753 9.76629 10.5956 9.60889 10.4015 9.60889Z" fill="white"/>
<path d="M10.4015 3.76465H2.43274C2.23858 3.76465 2.08118 3.92205 2.08118 4.11621C2.08118 4.31037 2.23858 4.46777 2.43274 4.46777H10.4015C10.5956 4.46777 10.7531 4.31037 10.7531 4.11621C10.7531 3.92205 10.5956 3.76465 10.4015 3.76465Z" fill="white"/>
<path d="M2.43274 6.33545H7.3744C7.56855 6.33545 7.72596 6.17804 7.72596 5.98389C7.72596 5.78973 7.56855 5.63232 7.3744 5.63232H2.43274C2.23858 5.63232 2.08118 5.78973 2.08118 5.98389C2.08118 6.17804 2.23858 6.33545 2.43274 6.33545Z" fill="white"/>
<path d="M10.4015 5.63232H8.98523C8.79107 5.63232 8.63367 5.78973 8.63367 5.98389C8.63367 6.17804 8.79107 6.33545 8.98523 6.33545H10.4015C10.5956 6.33545 10.753 6.17804 10.753 5.98389C10.753 5.78973 10.5956 5.63232 10.4015 5.63232Z" fill="white"/>
<path d="M10.7531 11.8057C10.7531 11.6115 10.5956 11.4541 10.4015 11.4541H2.43274C2.23858 11.4541 2.08118 11.6115 2.08118 11.8057C2.08118 11.9998 2.23858 12.1572 2.43274 12.1572H10.4015C10.5956 12.1572 10.7531 11.9998 10.7531 11.8057Z" fill="white"/>
<path d="M2.43274 13.3115C2.23858 13.3115 2.08118 13.4689 2.08118 13.6631C2.08118 13.8572 2.23858 14.0146 2.43274 14.0146H6.18274C6.3769 14.0146 6.5343 13.8572 6.5343 13.6631C6.5343 13.4689 6.3769 13.3115 6.18274 13.3115H2.43274Z" fill="white"/>
</svg>
