<svg id="profile_1_" data-name="profile (1)" xmlns="http://www.w3.org/2000/svg" width="22.802" height="23" viewBox="0 0 22.802 23">
  <circle id="Ellipse_3235" data-name="Ellipse 3235" cx="5" cy="5" r="5" transform="translate(4)" fill="#fff"/>
  <path id="Path_15096" data-name="Path 15096" d="M11.534,20.8a2.507,2.507,0,0,1,.2-2.8,2.506,2.506,0,0,1-.2-2.8l.809-1.4a2.507,2.507,0,0,1,2.166-1.25,2.546,2.546,0,0,1,.361.026,2.6,2.6,0,0,1,.116-.237A4.717,4.717,0,0,0,13.25,12H4.75A4.756,4.756,0,0,0,0,16.75v3.5A.75.75,0,0,0,.75,21h10.9Z" fill="#fff"/>
  <path id="Path_15097" data-name="Path 15097" d="M21.7,18.469A3.634,3.634,0,0,0,21.75,18a3.8,3.8,0,0,0-.047-.469l.9-.682a.5.5,0,0,0,.131-.649l-.809-1.4a.5.5,0,0,0-.627-.211l-1.037.437a3.715,3.715,0,0,0-.819-.487l-.138-1.1a.5.5,0,0,0-.5-.438H17.192a.5.5,0,0,0-.5.438l-.138,1.1a3.731,3.731,0,0,0-.819.487L14.7,14.589a.5.5,0,0,0-.627.211l-.809,1.4a.5.5,0,0,0,.131.649l.9.682a3.634,3.634,0,0,0-.047.469,3.8,3.8,0,0,0,.047.469l-.9.682a.5.5,0,0,0-.131.649l.809,1.4a.5.5,0,0,0,.627.211l1.037-.438a3.715,3.715,0,0,0,.819.487l.138,1.1a.5.5,0,0,0,.5.438h1.617a.5.5,0,0,0,.5-.438l.138-1.1a3.731,3.731,0,0,0,.819-.487l1.037.437a.5.5,0,0,0,.627-.211l.809-1.4a.5.5,0,0,0-.131-.649ZM18,20a2,2,0,1,1,2-2A2,2,0,0,1,18,20Z" fill="#fff"/>
</svg>
