<svg xmlns="http://www.w3.org/2000/svg" width="155.566" height="155.56" viewBox="0 0 155.566 155.56">
  <g id="profile-user" transform="translate(0 -0.001)">
    <path id="Path_14572" data-name="Path 14572" d="M77.783,0a77.78,77.78,0,1,0,77.783,77.78A77.784,77.784,0,0,0,77.783,0Zm0,23.257A25.727,25.727,0,1,1,52.059,48.985,25.729,25.729,0,0,1,77.783,23.258Zm-.017,111.967a57.085,57.085,0,0,1-37.173-13.708,10.963,10.963,0,0,1-3.847-8.333A25.946,25.946,0,0,1,62.818,87.245H92.755a25.909,25.909,0,0,1,26.031,25.939,10.936,10.936,0,0,1-3.844,8.33A57.065,57.065,0,0,1,77.766,135.225Z" transform="translate(0 0)" fill="#f6bb7e"/>
  </g>
</svg>
