<svg xmlns="http://www.w3.org/2000/svg" width="26.69" height="21.894" viewBox="0 0 26.69 21.894">
  <g id="questionnaire" transform="translate(0 -46)">
    <path id="Path_15089" data-name="Path 15089" d="M226.527,46a7.8,7.8,0,0,0-7.4,5.394,9.422,9.422,0,0,1,3.486,2.5v-.862h1.564V54.6h-1a9.117,9.117,0,0,1,1.674,6.846,7.787,7.787,0,0,0,1.676.191H234.4l-1.2-3.652a7.761,7.761,0,0,0,1.2-4.167A7.873,7.873,0,0,0,226.527,46Zm.782,8.6h-1.564V53.037h1.564Zm3.128,0h-1.564V53.037h1.564Z" transform="translate(-207.709 0)" fill="#fff"/>
    <path id="Path_15090" data-name="Path 15090" d="M7.871,166A7.873,7.873,0,0,0,0,173.819a7.761,7.761,0,0,0,1.2,4.167L0,181.639H7.871a7.819,7.819,0,0,0,0-15.639Zm.782,12.511H7.089v-1.564H8.653Zm.917-5.419a3.307,3.307,0,0,0-.917,2.292H7.089a4.865,4.865,0,0,1,1.349-3.371.782.782,0,1,0-1.349-.539H5.526a2.346,2.346,0,1,1,4.045,1.618Z" transform="translate(0 -113.745)" fill="#fff"/>
  </g>
</svg>
