<svg xmlns="http://www.w3.org/2000/svg" width="295.492" height="37.873" viewBox="0 0 295.492 37.873">
  <g id="rating_1_" data-name="rating (1)" transform="translate(0 -210.742)">
    <g id="Group_15167" data-name="Group 15167" transform="translate(0 210.745)">
      <g id="Group_15166" data-name="Group 15166" transform="translate(0 0)">
        <path id="Path_14413" data-name="Path 14413" d="M39.55,224.949a2.728,2.728,0,0,0-2.2-1.857l-10.415-1.514-4.658-9.43a2.836,2.836,0,0,0-4.89,0l-4.658,9.43-10.39,1.514a2.726,2.726,0,0,0-1.508,4.653l7.533,7.323L6.584,245.43a2.727,2.727,0,0,0,3.96,2.874l9.283-4.9,9.311,4.9a2.719,2.719,0,0,0,1.268.314,2.766,2.766,0,0,0,1.609-.518,2.736,2.736,0,0,0,1.085-2.67l-1.775-10.364,7.533-7.323A2.723,2.723,0,0,0,39.55,224.949Z" transform="translate(0 -210.749)" fill="#f5ae82"/>
      </g>
    </g>
    <g id="Group_15169" data-name="Group 15169" transform="translate(63.952 210.745)">
      <g id="Group_15168" data-name="Group 15168" transform="translate(0 0)">
        <path id="Path_14414" data-name="Path 14414" d="M143.839,224.949a2.728,2.728,0,0,0-2.2-1.857l-10.415-1.514-4.658-9.43a2.836,2.836,0,0,0-4.89,0l-4.658,9.43-10.391,1.514a2.726,2.726,0,0,0-1.508,4.653l7.533,7.323-1.775,10.363a2.727,2.727,0,0,0,3.96,2.874l9.283-4.9,9.311,4.9a2.719,2.719,0,0,0,1.268.314,2.766,2.766,0,0,0,1.609-.518,2.736,2.736,0,0,0,1.085-2.67l-1.775-10.364,7.533-7.323A2.722,2.722,0,0,0,143.839,224.949Z" transform="translate(-104.288 -210.749)" fill="#f5ae82"/>
      </g>
    </g>
    <g id="Group_15171" data-name="Group 15171" transform="translate(127.904 210.745)">
      <g id="Group_15170" data-name="Group 15170" transform="translate(0 0)">
        <path id="Path_14415" data-name="Path 14415" d="M248.127,224.949a2.728,2.728,0,0,0-2.2-1.857l-10.415-1.514-4.658-9.43a2.836,2.836,0,0,0-4.89,0l-4.658,9.43-10.391,1.514a2.726,2.726,0,0,0-1.508,4.653l7.533,7.323L215.16,245.43a2.727,2.727,0,0,0,3.96,2.874l9.284-4.9,9.311,4.9a2.719,2.719,0,0,0,1.268.314,2.766,2.766,0,0,0,1.609-.518,2.736,2.736,0,0,0,1.085-2.67L239.9,235.067l7.533-7.323A2.722,2.722,0,0,0,248.127,224.949Z" transform="translate(-208.576 -210.749)" fill="#f5ae82"/>
      </g>
    </g>
    <g id="Group_15173" data-name="Group 15173" transform="translate(191.857 210.742)">
      <g id="Group_15172" data-name="Group 15172">
        <path id="Path_14416" data-name="Path 14416" d="M352.417,224.943a2.728,2.728,0,0,0-2.2-1.857L339.8,221.571l-4.658-9.43a2.836,2.836,0,0,0-4.89,0l-4.658,9.43L315.2,223.086a2.726,2.726,0,0,0-1.508,4.653l7.533,7.323-1.775,10.364a2.727,2.727,0,0,0,3.96,2.874l9.284-4.9L342,248.3a2.719,2.719,0,0,0,1.268.314,2.766,2.766,0,0,0,1.609-.518,2.736,2.736,0,0,0,1.085-2.67l-1.775-10.364,7.533-7.323A2.722,2.722,0,0,0,352.417,224.943Z" transform="translate(-312.866 -210.742)" fill="#f5ae82"/>
      </g>
    </g>
    <g id="Group_15175" data-name="Group 15175" transform="translate(255.809 210.745)">
      <g id="Group_15174" data-name="Group 15174" transform="translate(0 0)">
        <path id="Path_14417" data-name="Path 14417" d="M456.706,224.95a2.728,2.728,0,0,0-2.2-1.857l-10.415-1.513-4.658-9.43a2.836,2.836,0,0,0-4.89,0l-4.658,9.43-10.391,1.513a2.726,2.726,0,0,0-1.508,4.653l7.533,7.323-1.775,10.364a2.727,2.727,0,0,0,3.96,2.874l9.284-4.9,9.311,4.9a2.719,2.719,0,0,0,1.268.314,2.766,2.766,0,0,0,1.609-.518,2.736,2.736,0,0,0,1.085-2.67l-1.775-10.363,7.533-7.323A2.723,2.723,0,0,0,456.706,224.95Zm-13.063,7.208a2.729,2.729,0,0,0-.788,2.416l1.085,6.333-5.692-2.992a2.719,2.719,0,0,0-2.536,0L430.05,240.9l1.085-6.324a2.725,2.725,0,0,0-.788-2.416l-4.592-4.464,6.33-.922a2.728,2.728,0,0,0,2.051-1.492l2.844-5.763,2.844,5.763a2.72,2.72,0,0,0,2.054,1.492l6.354.925Z" transform="translate(-417.155 -210.75)" fill="#f5ae82"/>
      </g>
    </g>
  </g>
</svg>
