<svg xmlns="http://www.w3.org/2000/svg" width="27.438" height="27.44" viewBox="0 0 27.438 27.44">
  <g id="resend" transform="translate(-0.086 0)">
    <path id="Path_14406" data-name="Path 14406" d="M276.9,11.5l1.4-.319a.826.826,0,0,0-.368-1.611l-3.369.77a.827.827,0,0,0-.622.99l.77,3.369a.826.826,0,1,0,1.611-.368l-.332-1.453a12.068,12.068,0,0,1-6.76,22.048,12.287,12.287,0,0,1-1.36-.076.826.826,0,0,0-.183,1.643,13.943,13.943,0,0,0,1.547.086A13.721,13.721,0,0,0,276.9,11.5Zm0,0" transform="translate(-255.396 -9.14)" fill="#f6bb7e"/>
    <path id="Path_14407" data-name="Path 14407" d="M8.159,21.716a.826.826,0,0,0-1.611.368l.35,1.531A12.067,12.067,0,0,1,15.141,1.729.826.826,0,0,0,15.325.086a13.72,13.72,0,0,0-9.43,24.845l-1.324.3a.826.826,0,1,0,.368,1.611l3.369-.77a.827.827,0,0,0,.622-.99Zm0,0" transform="translate(0 0)" fill="#f6bb7e"/>
    <path id="Path_14408" data-name="Path 14408" d="M135.389,226.928h14.33a.826.826,0,0,0,.826-.826v-9.168L143.11,223.7a.827.827,0,0,1-1.113,0l-7.435-6.768V226.1A.826.826,0,0,0,135.389,226.928Zm0,0" transform="translate(-128.7 -207.615)" fill="#f6bb7e"/>
    <path id="Path_14409" data-name="Path 14409" d="M174.936,189.2h-13.69l6.845,6.231Zm0,0" transform="translate(-154.237 -181.068)" fill="#f6bb7e"/>
  </g>
</svg>
