<svg xmlns="http://www.w3.org/2000/svg" width="21.846" height="22.47" viewBox="0 0 21.846 22.47">
  <g id="restore" transform="translate(-7.11 -0.004)">
    <path id="Path_15104" data-name="Path 15104" d="M82.333,85.088a.767.767,0,0,1-.963.5l-.587-.184a7.824,7.824,0,1,0,1.557-.752.762.762,0,0,1-.007.433Zm.769,2.466a.768.768,0,0,1,1.537,0v4.182a.626.626,0,0,0,.625.625h2.788a.768.768,0,0,1,0,1.537H85.264A2.165,2.165,0,0,1,83.1,91.736Z" transform="translate(-66.918 -80.51)" fill="#fff"/>
    <path id="Path_15105" data-name="Path 15105" d="M25.757,3.828a10.932,10.932,0,0,0-12.3-2.2l.226-.579a.768.768,0,0,0-1.431-.56L11.3,2.917A1.051,1.051,0,0,0,11.968,4.3l1.9.595a7.832,7.832,0,0,1,1.557-.752.768.768,0,0,0-.51-.53l-1.226-.384A9.379,9.379,0,1,1,9.655,7.315.768.768,0,0,0,8.284,6.62,10.924,10.924,0,0,0,25.757,19.275a10.923,10.923,0,0,0,0-15.447Z" transform="translate(0 0)" fill="#fff"/>
  </g>
</svg>
