<svg id="single" xmlns="http://www.w3.org/2000/svg" width="25.093" height="25.093" viewBox="0 0 25.093 25.093">
  <path id="Path_14401" data-name="Path 14401" d="M247.76,239.791a.571.571,0,0,1-.393.541l-5.3,1.736-1.736,5.3a.573.573,0,0,1-.541.393.566.566,0,0,1-.529-.364l-4.554-11.953a.474.474,0,0,1-.04-.205.571.571,0,0,1,.569-.569.474.474,0,0,1,.205.04l11.954,4.554A.564.564,0,0,1,247.76,239.791Zm0,0" transform="translate(-222.667 -222.667)"/>
  <path id="Path_14402" data-name="Path 14402" d="M10.91,21.82A10.91,10.91,0,1,1,21.82,10.91c0,.163,0,.325-.014.489a1.08,1.08,0,0,1-1.174,1,1.092,1.092,0,0,1-1-1.174c.009-.1.008-.211.008-.316a8.728,8.728,0,1,0-8.728,8.728c.1,0,.223,0,.332-.007a1.091,1.091,0,0,1,.164,2.175C11.245,21.818,11.07,21.82,10.91,21.82Zm0,0"/>
</svg>
