<svg xmlns="http://www.w3.org/2000/svg" width="23.856" height="29.385" viewBox="0 0 23.856 29.385">
  <g id="sort-by-numeric-order" transform="translate(-48.131)">
    <g id="Group_15158" data-name="Group 15158" transform="translate(48.131)">
      <path id="Path_14403" data-name="Path 14403" d="M59.163,23.088H56.014V.525A.505.505,0,0,0,55.49,0H52.341a.505.505,0,0,0-.525.525V23.088H48.668a.487.487,0,0,0-.492.328.5.5,0,0,0,.115.574l5.247,5.247a.59.59,0,0,0,.377.147.548.548,0,0,0,.377-.147l5.231-5.231a.615.615,0,0,0,.164-.393.5.5,0,0,0-.525-.525Z" transform="translate(-48.131 0)"/>
      <path id="Path_14404" data-name="Path 14404" d="M316.814,293.9a4.268,4.268,0,0,0-3.362-1.549,4.137,4.137,0,0,0-3.05,6.944,3.713,3.713,0,0,0,2.837,1.172,4.208,4.208,0,0,0,1.386-.23,2.4,2.4,0,0,0,1.009-.607h.033a4.939,4.939,0,0,1-1.09,2.386,2.768,2.768,0,0,1-2.206.959,3.681,3.681,0,0,1-1.229-.213,2.792,2.792,0,0,1-.508-.18l-.64,1.853q.3.115.689.247a5.847,5.847,0,0,0,3.861-.14,4.814,4.814,0,0,0,1.615-1.074,6.427,6.427,0,0,0,1.115-1.566,7.659,7.659,0,0,0,.672-1.869,9.3,9.3,0,0,0,.214-1.993A6.1,6.1,0,0,0,316.814,293.9Zm-1.525,4.3a2.213,2.213,0,0,1-1.394.443,2.267,2.267,0,0,1-1.714-.623,2.16,2.16,0,0,1-.6-1.558,2.319,2.319,0,0,1,.508-1.541,1.684,1.684,0,0,1,1.361-.607,2.145,2.145,0,0,1,1.689.869,2.912,2.912,0,0,1,.721,1.9A1.353,1.353,0,0,1,315.289,298.209Z" transform="translate(-294.304 -275.564)"/>
      <path id="Path_14405" data-name="Path 14405" d="M320.228,3.493a2.966,2.966,0,0,0,.426-.508l.115-.2h.033V3.05c0,.054,0,.147-.008.279s-.008.235-.008.312v7.084h-2.738v1.869h7.691V10.724h-2.706V0h-2.017l-3.148,3.034,1.345,1.41Z" transform="translate(-302.375)"/>
    </g>
  </g>
</svg>
