<svg id="surface1" xmlns="http://www.w3.org/2000/svg" width="26.892" height="29.814" viewBox="0 0 26.892 29.814">
  <path id="Path_14409" data-name="Path 14409" d="M238.2,19.256h3.291l-5.037-5.3V17.5A1.753,1.753,0,0,0,238.2,19.256Zm0,0" transform="translate(-222.681 -13.144)"/>
  <path id="Path_14410" data-name="Path 14410" d="M10.055,19.477H4.218a.537.537,0,1,1,0-1.075H10.41a9.54,9.54,0,0,1,1.363-2.351H4.218a.537.537,0,1,1,0-1.075h8.577a9.247,9.247,0,0,1,6.078-2.31c.222,0,.4.02.672.04V7.186h-4.03a2.831,2.831,0,0,1-2.821-2.828V0H2.391A2.4,2.4,0,0,0,0,2.425v20.5a2.381,2.381,0,0,0,2.391,2.4h8.093a9.174,9.174,0,0,1-.43-5.843ZM4.218,11.619h6.8a.537.537,0,0,1,0,1.075h-6.8a.537.537,0,0,1,0-1.075Zm0,0"/>
  <path id="Path_14411" data-name="Path 14411" d="M194.186,236.336a8.026,8.026,0,1,0,8.026,8.026A8.034,8.034,0,0,0,194.186,236.336Zm4.292,8.147a.536.536,0,0,1-.363.141.557.557,0,0,1-.39-.168l-3-3.224v7.67a.537.537,0,1,1-1.075,0v-7.677l-3.009,3.224a.548.548,0,0,1-.766.027.54.54,0,0,1-.027-.759l3.936-4.225a.538.538,0,0,1,.4-.168.549.549,0,0,1,.4.168l3.936,4.225A.561.561,0,0,1,198.478,244.483Zm0,0" transform="translate(-175.32 -222.574)"/>
</svg>
