<svg xmlns="http://www.w3.org/2000/svg" width="20.362" height="22.877" viewBox="0 0 20.362 22.877">
  <g id="XMLID_2_" transform="translate(-25.274)">
    <g id="Group_15282" data-name="Group 15282" transform="translate(25.274)">
      <g id="Group_15281" data-name="Group 15281" transform="translate(0)">
        <path id="Path_15106" data-name="Path 15106" d="M41.912,281.155a4.975,4.975,0,0,1-4.027,2.055h-2.32a1.854,1.854,0,0,1-1.742-1.221,5.883,5.883,0,0,1-.937-.37,6.311,6.311,0,0,1-1.75-1.3,7.473,7.473,0,0,0-5.861,7.3v.467a1.163,1.163,0,0,0,1.163,1.163H44.473a1.163,1.163,0,0,0,1.163-1.163v-.467A7.468,7.468,0,0,0,41.912,281.155Z" transform="translate(-25.274 -266.372)" fill="#fff"/>
        <path id="Path_15107" data-name="Path 15107" d="M92.932,11.555a1.323,1.323,0,0,0,1.16-.686l.018.048.005.014A5.166,5.166,0,0,0,97.028,14a1.852,1.852,0,0,1,1.569-.868h2.32a1.3,1.3,0,0,0,.636-.171,2.622,2.622,0,0,0,.75-.866,6.69,6.69,0,0,0,.58-1.226,1.33,1.33,0,0,0,.366.422v.569a2.334,2.334,0,0,1-2.331,2.331H98.6a.794.794,0,0,0,0,1.588h2.32a3.924,3.924,0,0,0,3.92-3.92v-.569a1.322,1.322,0,0,0,.529-1.059V6.918a1.322,1.322,0,0,0-.55-1.073,6.35,6.35,0,0,0-12.66,0,1.322,1.322,0,0,0-.55,1.073v3.313A1.324,1.324,0,0,0,92.932,11.555Zm5.556-9.967a4.768,4.768,0,0,1,4.738,4.289,1.329,1.329,0,0,0-.372.46,4.532,4.532,0,0,0-8.729-.008l0,.008a1.329,1.329,0,0,0-.372-.46A4.768,4.768,0,0,1,98.487,1.588Z" transform="translate(-88.307)" fill="#fff"/>
      </g>
    </g>
  </g>
</svg>
